ISO-10303-21;
HEADER;
/* Generated by software containing ST-Developer
 * from STEP Tools, Inc. (www.steptools.com)
 */

FILE_DESCRIPTION(
/* description */ (''),
/* implementation_level */ '2;1');

FILE_NAME(
/* name */ 'EL-Connect-003-OT-201-M8.step',
/* time_stamp */ '2026-05-07T07:48:59+08:00',
/* author */ (''),
/* organization */ (''),
/* preprocessor_version */ 'ST-DEVELOPER v20.1',
/* originating_system */ 'Autodesk Translation Framework v15.8.0.0',
/* authorisation */ '');

FILE_SCHEMA (('AUTOMOTIVE_DESIGN { 1 0 10303 214 3 1 1 }'));
ENDSEC;

DATA;
#10=MECHANICAL_DESIGN_GEOMETRIC_PRESENTATION_REPRESENTATION('',(#13),#1632);
#11=SHAPE_REPRESENTATION_RELATIONSHIP('SRR','None',#1639,#12);
#12=ADVANCED_BREP_SHAPE_REPRESENTATION('',(#14),#1631);
#13=STYLED_ITEM('',(#1648),#14);
#14=MANIFOLD_SOLID_BREP('\X2\5B9E4F53\X0\1',#964);
#15=FACE_BOUND('',#154,.T.);
#16=FACE_BOUND('',#158,.T.);
#17=PLANE('',#981);
#18=PLANE('',#985);
#19=PLANE('',#989);
#20=PLANE('',#990);
#21=PLANE('',#997);
#22=PLANE('',#1003);
#23=PLANE('',#1004);
#24=PLANE('',#1005);
#25=PLANE('',#1006);
#26=PLANE('',#1007);
#27=PLANE('',#1008);
#28=PLANE('',#1012);
#29=PLANE('',#1019);
#30=PLANE('',#1020);
#31=PLANE('',#1027);
#32=PLANE('',#1030);
#33=PLANE('',#1033);
#34=PLANE('',#1034);
#35=PLANE('',#1035);
#36=PLANE('',#1036);
#37=PLANE('',#1037);
#38=PLANE('',#1039);
#39=PLANE('',#1042);
#40=PLANE('',#1043);
#41=PLANE('',#1047);
#42=PLANE('',#1049);
#43=PLANE('',#1051);
#44=PLANE('',#1056);
#45=PLANE('',#1058);
#46=PLANE('',#1060);
#47=PLANE('',#1062);
#48=PLANE('',#1063);
#49=PLANE('',#1065);
#50=PLANE('',#1068);
#51=FACE_OUTER_BOUND('',#104,.T.);
#52=FACE_OUTER_BOUND('',#105,.T.);
#53=FACE_OUTER_BOUND('',#106,.T.);
#54=FACE_OUTER_BOUND('',#107,.T.);
#55=FACE_OUTER_BOUND('',#108,.T.);
#56=FACE_OUTER_BOUND('',#109,.T.);
#57=FACE_OUTER_BOUND('',#110,.T.);
#58=FACE_OUTER_BOUND('',#111,.T.);
#59=FACE_OUTER_BOUND('',#112,.T.);
#60=FACE_OUTER_BOUND('',#113,.T.);
#61=FACE_OUTER_BOUND('',#114,.T.);
#62=FACE_OUTER_BOUND('',#115,.T.);
#63=FACE_OUTER_BOUND('',#116,.T.);
#64=FACE_OUTER_BOUND('',#117,.T.);
#65=FACE_OUTER_BOUND('',#118,.T.);
#66=FACE_OUTER_BOUND('',#119,.T.);
#67=FACE_OUTER_BOUND('',#120,.T.);
#68=FACE_OUTER_BOUND('',#121,.T.);
#69=FACE_OUTER_BOUND('',#122,.T.);
#70=FACE_OUTER_BOUND('',#123,.T.);
#71=FACE_OUTER_BOUND('',#124,.T.);
#72=FACE_OUTER_BOUND('',#125,.T.);
#73=FACE_OUTER_BOUND('',#126,.T.);
#74=FACE_OUTER_BOUND('',#127,.T.);
#75=FACE_OUTER_BOUND('',#128,.T.);
#76=FACE_OUTER_BOUND('',#129,.T.);
#77=FACE_OUTER_BOUND('',#130,.T.);
#78=FACE_OUTER_BOUND('',#131,.T.);
#79=FACE_OUTER_BOUND('',#132,.T.);
#80=FACE_OUTER_BOUND('',#133,.T.);
#81=FACE_OUTER_BOUND('',#134,.T.);
#82=FACE_OUTER_BOUND('',#135,.T.);
#83=FACE_OUTER_BOUND('',#136,.T.);
#84=FACE_OUTER_BOUND('',#137,.T.);
#85=FACE_OUTER_BOUND('',#138,.T.);
#86=FACE_OUTER_BOUND('',#139,.T.);
#87=FACE_OUTER_BOUND('',#140,.T.);
#88=FACE_OUTER_BOUND('',#141,.T.);
#89=FACE_OUTER_BOUND('',#142,.T.);
#90=FACE_OUTER_BOUND('',#143,.T.);
#91=FACE_OUTER_BOUND('',#144,.T.);
#92=FACE_OUTER_BOUND('',#145,.T.);
#93=FACE_OUTER_BOUND('',#146,.T.);
#94=FACE_OUTER_BOUND('',#147,.T.);
#95=FACE_OUTER_BOUND('',#148,.T.);
#96=FACE_OUTER_BOUND('',#149,.T.);
#97=FACE_OUTER_BOUND('',#150,.T.);
#98=FACE_OUTER_BOUND('',#151,.T.);
#99=FACE_OUTER_BOUND('',#152,.T.);
#100=FACE_OUTER_BOUND('',#153,.T.);
#101=FACE_OUTER_BOUND('',#155,.T.);
#102=FACE_OUTER_BOUND('',#156,.T.);
#103=FACE_OUTER_BOUND('',#157,.T.);
#104=EDGE_LOOP('',(#618,#619,#620,#621));
#105=EDGE_LOOP('',(#622,#623,#624,#625));
#106=EDGE_LOOP('',(#626,#627,#628,#629));
#107=EDGE_LOOP('',(#630,#631,#632,#633));
#108=EDGE_LOOP('',(#634,#635,#636,#637));
#109=EDGE_LOOP('',(#638,#639,#640,#641));
#110=EDGE_LOOP('',(#642,#643,#644,#645,#646,#647,#648,#649,#650,#651,#652,
#653,#654,#655,#656,#657,#658,#659,#660));
#111=EDGE_LOOP('',(#661,#662,#663,#664));
#112=EDGE_LOOP('',(#665,#666,#667,#668,#669,#670,#671,#672,#673,#674,#675,
#676,#677,#678,#679,#680,#681,#682,#683));
#113=EDGE_LOOP('',(#684,#685,#686,#687));
#114=EDGE_LOOP('',(#688,#689,#690,#691));
#115=EDGE_LOOP('',(#692,#693,#694,#695));
#116=EDGE_LOOP('',(#696,#697,#698,#699));
#117=EDGE_LOOP('',(#700,#701,#702,#703));
#118=EDGE_LOOP('',(#704,#705,#706,#707));
#119=EDGE_LOOP('',(#708,#709,#710,#711));
#120=EDGE_LOOP('',(#712,#713,#714,#715));
#121=EDGE_LOOP('',(#716,#717,#718,#719));
#122=EDGE_LOOP('',(#720,#721,#722,#723));
#123=EDGE_LOOP('',(#724,#725,#726,#727));
#124=EDGE_LOOP('',(#728,#729,#730,#731));
#125=EDGE_LOOP('',(#732,#733,#734,#735));
#126=EDGE_LOOP('',(#736,#737,#738,#739,#740,#741,#742,#743,#744,#745,#746,
#747,#748,#749,#750,#751,#752,#753,#754));
#127=EDGE_LOOP('',(#755,#756,#757,#758));
#128=EDGE_LOOP('',(#759,#760,#761,#762));
#129=EDGE_LOOP('',(#763,#764,#765,#766));
#130=EDGE_LOOP('',(#767,#768,#769,#770));
#131=EDGE_LOOP('',(#771,#772,#773,#774));
#132=EDGE_LOOP('',(#775,#776,#777,#778));
#133=EDGE_LOOP('',(#779,#780,#781,#782));
#134=EDGE_LOOP('',(#783,#784,#785,#786));
#135=EDGE_LOOP('',(#787,#788,#789,#790));
#136=EDGE_LOOP('',(#791,#792,#793,#794));
#137=EDGE_LOOP('',(#795,#796,#797,#798));
#138=EDGE_LOOP('',(#799,#800,#801,#802));
#139=EDGE_LOOP('',(#803,#804,#805,#806));
#140=EDGE_LOOP('',(#807,#808,#809,#810));
#141=EDGE_LOOP('',(#811,#812,#813,#814,#815,#816,#817,#818,#819,#820,#821,
#822,#823,#824,#825,#826,#827,#828,#829));
#142=EDGE_LOOP('',(#830,#831,#832,#833));
#143=EDGE_LOOP('',(#834,#835,#836,#837));
#144=EDGE_LOOP('',(#838,#839,#840,#841));
#145=EDGE_LOOP('',(#842,#843,#844,#845));
#146=EDGE_LOOP('',(#846,#847,#848,#849));
#147=EDGE_LOOP('',(#850,#851,#852,#853));
#148=EDGE_LOOP('',(#854,#855,#856,#857));
#149=EDGE_LOOP('',(#858,#859,#860,#861));
#150=EDGE_LOOP('',(#862,#863,#864,#865));
#151=EDGE_LOOP('',(#866,#867,#868,#869));
#152=EDGE_LOOP('',(#870,#871,#872,#873));
#153=EDGE_LOOP('',(#874,#875,#876,#877));
#154=EDGE_LOOP('',(#878));
#155=EDGE_LOOP('',(#879,#880,#881,#882));
#156=EDGE_LOOP('',(#883,#884,#885,#886));
#157=EDGE_LOOP('',(#887,#888,#889,#890));
#158=EDGE_LOOP('',(#891));
#159=LINE('',#1358,#258);
#160=LINE('',#1361,#259);
#161=LINE('',#1364,#260);
#162=LINE('',#1366,#261);
#163=LINE('',#1367,#262);
#164=LINE('',#1373,#263);
#165=LINE('',#1376,#264);
#166=LINE('',#1379,#265);
#167=LINE('',#1381,#266);
#168=LINE('',#1382,#267);
#169=LINE('',#1388,#268);
#170=LINE('',#1391,#269);
#171=LINE('',#1394,#270);
#172=LINE('',#1396,#271);
#173=LINE('',#1397,#272);
#174=LINE('',#1400,#273);
#175=LINE('',#1402,#274);
#176=LINE('',#1406,#275);
#177=LINE('',#1410,#276);
#178=LINE('',#1412,#277);
#179=LINE('',#1414,#278);
#180=LINE('',#1416,#279);
#181=LINE('',#1420,#280);
#182=LINE('',#1421,#281);
#183=LINE('',#1425,#282);
#184=LINE('',#1428,#283);
#185=LINE('',#1430,#284);
#186=LINE('',#1434,#285);
#187=LINE('',#1436,#286);
#188=LINE('',#1438,#287);
#189=LINE('',#1440,#288);
#190=LINE('',#1444,#289);
#191=LINE('',#1446,#290);
#192=LINE('',#1447,#291);
#193=LINE('',#1449,#292);
#194=LINE('',#1451,#293);
#195=LINE('',#1452,#294);
#196=LINE('',#1454,#295);
#197=LINE('',#1459,#296);
#198=LINE('',#1461,#297);
#199=LINE('',#1467,#298);
#200=LINE('',#1470,#299);
#201=LINE('',#1473,#300);
#202=LINE('',#1475,#301);
#203=LINE('',#1476,#302);
#204=LINE('',#1482,#303);
#205=LINE('',#1488,#304);
#206=LINE('',#1491,#305);
#207=LINE('',#1494,#306);
#208=LINE('',#1496,#307);
#209=LINE('',#1497,#308);
#210=LINE('',#1500,#309);
#211=LINE('',#1502,#310);
#212=LINE('',#1504,#311);
#213=LINE('',#1508,#312);
#214=LINE('',#1510,#313);
#215=LINE('',#1512,#314);
#216=LINE('',#1514,#315);
#217=LINE('',#1518,#316);
#218=LINE('',#1521,#317);
#219=LINE('',#1523,#318);
#220=LINE('',#1528,#319);
#221=LINE('',#1530,#320);
#222=LINE('',#1535,#321);
#223=LINE('',#1536,#322);
#224=LINE('',#1539,#323);
#225=LINE('',#1540,#324);
#226=LINE('',#1544,#325);
#227=LINE('',#1547,#326);
#228=LINE('',#1548,#327);
#229=LINE('',#1550,#328);
#230=LINE('',#1553,#329);
#231=LINE('',#1554,#330);
#232=LINE('',#1557,#331);
#233=LINE('',#1558,#332);
#234=LINE('',#1561,#333);
#235=LINE('',#1562,#334);
#236=LINE('',#1564,#335);
#237=LINE('',#1565,#336);
#238=LINE('',#1567,#337);
#239=LINE('',#1570,#338);
#240=LINE('',#1573,#339);
#241=LINE('',#1576,#340);
#242=LINE('',#1577,#341);
#243=LINE('',#1579,#342);
#244=LINE('',#1580,#343);
#245=LINE('',#1585,#344);
#246=LINE('',#1590,#345);
#247=LINE('',#1593,#346);
#248=LINE('',#1597,#347);
#249=LINE('',#1602,#348);
#250=LINE('',#1607,#349);
#251=LINE('',#1610,#350);
#252=LINE('',#1614,#351);
#253=LINE('',#1616,#352);
#254=LINE('',#1617,#353);
#255=LINE('',#1619,#354);
#256=LINE('',#1623,#355);
#257=LINE('',#1626,#356);
#258=VECTOR('',#1075,10.);
#259=VECTOR('',#1078,10.);
#260=VECTOR('',#1081,10.);
#261=VECTOR('',#1082,10.);
#262=VECTOR('',#1083,10.);
#263=VECTOR('',#1088,10.);
#264=VECTOR('',#1091,10.);
#265=VECTOR('',#1094,10.);
#266=VECTOR('',#1095,10.);
#267=VECTOR('',#1096,10.);
#268=VECTOR('',#1101,10.);
#269=VECTOR('',#1104,10.);
#270=VECTOR('',#1107,10.);
#271=VECTOR('',#1108,10.);
#272=VECTOR('',#1109,10.);
#273=VECTOR('',#1112,10.);
#274=VECTOR('',#1115,10.);
#275=VECTOR('',#1118,10.);
#276=VECTOR('',#1121,10.);
#277=VECTOR('',#1122,10.);
#278=VECTOR('',#1123,10.);
#279=VECTOR('',#1124,0.98);
#280=VECTOR('',#1127,10.);
#281=VECTOR('',#1128,10.);
#282=VECTOR('',#1133,10.);
#283=VECTOR('',#1136,0.98);
#284=VECTOR('',#1137,10.);
#285=VECTOR('',#1140,0.98);
#286=VECTOR('',#1141,10.);
#287=VECTOR('',#1142,0.98);
#288=VECTOR('',#1143,10.);
#289=VECTOR('',#1146,10.);
#290=VECTOR('',#1149,10.);
#291=VECTOR('',#1150,10.);
#292=VECTOR('',#1153,10.);
#293=VECTOR('',#1156,10.);
#294=VECTOR('',#1157,10.);
#295=VECTOR('',#1160,10.);
#296=VECTOR('',#1169,10.);
#297=VECTOR('',#1172,10.);
#298=VECTOR('',#1177,10.);
#299=VECTOR('',#1180,10.);
#300=VECTOR('',#1183,10.);
#301=VECTOR('',#1184,10.);
#302=VECTOR('',#1185,10.);
#303=VECTOR('',#1192,10.);
#304=VECTOR('',#1197,10.);
#305=VECTOR('',#1200,10.);
#306=VECTOR('',#1203,10.);
#307=VECTOR('',#1204,10.);
#308=VECTOR('',#1205,10.);
#309=VECTOR('',#1208,10.);
#310=VECTOR('',#1209,0.98);
#311=VECTOR('',#1210,10.);
#312=VECTOR('',#1213,10.);
#313=VECTOR('',#1214,10.);
#314=VECTOR('',#1215,0.98);
#315=VECTOR('',#1216,10.);
#316=VECTOR('',#1219,10.);
#317=VECTOR('',#1222,10.);
#318=VECTOR('',#1223,10.);
#319=VECTOR('',#1230,10.);
#320=VECTOR('',#1233,10.);
#321=VECTOR('',#1238,10.);
#322=VECTOR('',#1239,10.);
#323=VECTOR('',#1242,10.);
#324=VECTOR('',#1243,10.);
#325=VECTOR('',#1248,10.);
#326=VECTOR('',#1251,10.);
#327=VECTOR('',#1252,10.);
#328=VECTOR('',#1255,10.);
#329=VECTOR('',#1258,10.);
#330=VECTOR('',#1259,0.98);
#331=VECTOR('',#1262,10.);
#332=VECTOR('',#1263,10.);
#333=VECTOR('',#1266,0.98);
#334=VECTOR('',#1267,10.);
#335=VECTOR('',#1270,10.);
#336=VECTOR('',#1271,10.);
#337=VECTOR('',#1274,10.);
#338=VECTOR('',#1277,10.);
#339=VECTOR('',#1280,10.);
#340=VECTOR('',#1283,0.98);
#341=VECTOR('',#1284,10.);
#342=VECTOR('',#1287,10.);
#343=VECTOR('',#1288,10.);
#344=VECTOR('',#1293,10.);
#345=VECTOR('',#1300,10.);
#346=VECTOR('',#1303,10.);
#347=VECTOR('',#1310,10.);
#348=VECTOR('',#1315,10.);
#349=VECTOR('',#1322,10.);
#350=VECTOR('',#1325,10.);
#351=VECTOR('',#1332,10.);
#352=VECTOR('',#1335,10.);
#353=VECTOR('',#1336,10.);
#354=VECTOR('',#1339,10.);
#355=VECTOR('',#1344,10.);
#356=VECTOR('',#1347,4.);
#357=CIRCLE('',#979,0.5);
#358=CIRCLE('',#980,0.5);
#359=CIRCLE('',#983,0.5);
#360=CIRCLE('',#984,0.5);
#361=CIRCLE('',#987,0.5);
#362=CIRCLE('',#988,0.5);
#363=CIRCLE('',#991,0.5);
#364=CIRCLE('',#992,0.5);
#365=CIRCLE('',#993,0.5);
#366=CIRCLE('',#994,2.);
#367=CIRCLE('',#996,0.5);
#368=CIRCLE('',#998,2.);
#369=CIRCLE('',#999,0.5);
#370=CIRCLE('',#1000,0.5);
#371=CIRCLE('',#1010,0.5);
#372=CIRCLE('',#1011,0.5);
#373=CIRCLE('',#1014,0.5);
#374=CIRCLE('',#1015,0.5);
#375=CIRCLE('',#1017,0.5);
#376=CIRCLE('',#1018,0.5);
#377=CIRCLE('',#1021,2.);
#378=CIRCLE('',#1022,0.5);
#379=CIRCLE('',#1023,0.5);
#380=CIRCLE('',#1024,0.5);
#381=CIRCLE('',#1026,0.5);
#382=CIRCLE('',#1029,0.5);
#383=CIRCLE('',#1032,0.5);
#384=CIRCLE('',#1041,2.);
#385=CIRCLE('',#1045,2.1);
#386=CIRCLE('',#1046,2.1);
#387=CIRCLE('',#1048,0.1);
#388=CIRCLE('',#1050,0.1);
#389=CIRCLE('',#1054,2.09999999999998);
#390=CIRCLE('',#1055,2.1);
#391=CIRCLE('',#1057,0.0999999999999823);
#392=CIRCLE('',#1059,0.100000000000016);
#393=CIRCLE('',#1064,4.);
#394=CIRCLE('',#1067,4.);
#395=VERTEX_POINT('',#1354);
#396=VERTEX_POINT('',#1355);
#397=VERTEX_POINT('',#1357);
#398=VERTEX_POINT('',#1359);
#399=VERTEX_POINT('',#1363);
#400=VERTEX_POINT('',#1365);
#401=VERTEX_POINT('',#1369);
#402=VERTEX_POINT('',#1370);
#403=VERTEX_POINT('',#1372);
#404=VERTEX_POINT('',#1374);
#405=VERTEX_POINT('',#1378);
#406=VERTEX_POINT('',#1380);
#407=VERTEX_POINT('',#1384);
#408=VERTEX_POINT('',#1385);
#409=VERTEX_POINT('',#1387);
#410=VERTEX_POINT('',#1389);
#411=VERTEX_POINT('',#1393);
#412=VERTEX_POINT('',#1395);
#413=VERTEX_POINT('',#1399);
#414=VERTEX_POINT('',#1403);
#415=VERTEX_POINT('',#1405);
#416=VERTEX_POINT('',#1407);
#417=VERTEX_POINT('',#1409);
#418=VERTEX_POINT('',#1411);
#419=VERTEX_POINT('',#1413);
#420=VERTEX_POINT('',#1415);
#421=VERTEX_POINT('',#1417);
#422=VERTEX_POINT('',#1419);
#423=VERTEX_POINT('',#1423);
#424=VERTEX_POINT('',#1427);
#425=VERTEX_POINT('',#1429);
#426=VERTEX_POINT('',#1431);
#427=VERTEX_POINT('',#1433);
#428=VERTEX_POINT('',#1435);
#429=VERTEX_POINT('',#1437);
#430=VERTEX_POINT('',#1439);
#431=VERTEX_POINT('',#1441);
#432=VERTEX_POINT('',#1443);
#433=VERTEX_POINT('',#1463);
#434=VERTEX_POINT('',#1464);
#435=VERTEX_POINT('',#1466);
#436=VERTEX_POINT('',#1468);
#437=VERTEX_POINT('',#1472);
#438=VERTEX_POINT('',#1474);
#439=VERTEX_POINT('',#1478);
#440=VERTEX_POINT('',#1480);
#441=VERTEX_POINT('',#1484);
#442=VERTEX_POINT('',#1485);
#443=VERTEX_POINT('',#1487);
#444=VERTEX_POINT('',#1489);
#445=VERTEX_POINT('',#1493);
#446=VERTEX_POINT('',#1495);
#447=VERTEX_POINT('',#1499);
#448=VERTEX_POINT('',#1501);
#449=VERTEX_POINT('',#1503);
#450=VERTEX_POINT('',#1505);
#451=VERTEX_POINT('',#1507);
#452=VERTEX_POINT('',#1509);
#453=VERTEX_POINT('',#1511);
#454=VERTEX_POINT('',#1513);
#455=VERTEX_POINT('',#1515);
#456=VERTEX_POINT('',#1517);
#457=VERTEX_POINT('',#1519);
#458=VERTEX_POINT('',#1522);
#459=VERTEX_POINT('',#1526);
#460=VERTEX_POINT('',#1532);
#461=VERTEX_POINT('',#1533);
#462=VERTEX_POINT('',#1538);
#463=VERTEX_POINT('',#1542);
#464=VERTEX_POINT('',#1546);
#465=VERTEX_POINT('',#1552);
#466=VERTEX_POINT('',#1556);
#467=VERTEX_POINT('',#1560);
#468=VERTEX_POINT('',#1569);
#469=VERTEX_POINT('',#1571);
#470=VERTEX_POINT('',#1575);
#471=VERTEX_POINT('',#1582);
#472=VERTEX_POINT('',#1584);
#473=VERTEX_POINT('',#1588);
#474=VERTEX_POINT('',#1592);
#475=VERTEX_POINT('',#1599);
#476=VERTEX_POINT('',#1601);
#477=VERTEX_POINT('',#1605);
#478=VERTEX_POINT('',#1609);
#479=VERTEX_POINT('',#1620);
#480=VERTEX_POINT('',#1625);
#481=EDGE_CURVE('',#395,#396,#357,.T.);
#482=EDGE_CURVE('',#396,#397,#159,.T.);
#483=EDGE_CURVE('',#397,#398,#358,.T.);
#484=EDGE_CURVE('',#398,#395,#160,.T.);
#485=EDGE_CURVE('',#399,#396,#161,.T.);
#486=EDGE_CURVE('',#400,#399,#162,.T.);
#487=EDGE_CURVE('',#397,#400,#163,.T.);
#488=EDGE_CURVE('',#401,#402,#359,.T.);
#489=EDGE_CURVE('',#402,#403,#164,.T.);
#490=EDGE_CURVE('',#403,#404,#360,.T.);
#491=EDGE_CURVE('',#404,#401,#165,.T.);
#492=EDGE_CURVE('',#405,#402,#166,.T.);
#493=EDGE_CURVE('',#406,#405,#167,.T.);
#494=EDGE_CURVE('',#403,#406,#168,.T.);
#495=EDGE_CURVE('',#407,#408,#361,.T.);
#496=EDGE_CURVE('',#408,#409,#169,.T.);
#497=EDGE_CURVE('',#409,#410,#362,.T.);
#498=EDGE_CURVE('',#410,#407,#170,.T.);
#499=EDGE_CURVE('',#411,#410,#171,.T.);
#500=EDGE_CURVE('',#412,#411,#172,.T.);
#501=EDGE_CURVE('',#412,#407,#173,.T.);
#502=EDGE_CURVE('',#409,#413,#174,.T.);
#503=EDGE_CURVE('',#399,#413,#363,.T.);
#504=EDGE_CURVE('',#395,#404,#175,.T.);
#505=EDGE_CURVE('',#414,#406,#364,.T.);
#506=EDGE_CURVE('',#414,#415,#176,.T.);
#507=EDGE_CURVE('',#416,#415,#365,.T.);
#508=EDGE_CURVE('',#416,#417,#177,.T.);
#509=EDGE_CURVE('',#417,#418,#178,.T.);
#510=EDGE_CURVE('',#418,#419,#179,.T.);
#511=EDGE_CURVE('',#419,#420,#180,.T.);
#512=EDGE_CURVE('',#421,#420,#366,.T.);
#513=EDGE_CURVE('',#421,#422,#181,.T.);
#514=EDGE_CURVE('',#422,#411,#182,.T.);
#515=EDGE_CURVE('',#423,#400,#367,.T.);
#516=EDGE_CURVE('',#413,#423,#183,.T.);
#517=EDGE_CURVE('',#424,#412,#184,.T.);
#518=EDGE_CURVE('',#424,#425,#185,.T.);
#519=EDGE_CURVE('',#426,#425,#368,.T.);
#520=EDGE_CURVE('',#426,#427,#186,.T.);
#521=EDGE_CURVE('',#427,#428,#187,.T.);
#522=EDGE_CURVE('',#429,#428,#188,.T.);
#523=EDGE_CURVE('',#430,#429,#189,.T.);
#524=EDGE_CURVE('',#431,#430,#369,.T.);
#525=EDGE_CURVE('',#432,#431,#190,.T.);
#526=EDGE_CURVE('',#405,#432,#370,.T.);
#527=EDGE_CURVE('',#401,#398,#191,.T.);
#528=EDGE_CURVE('',#408,#423,#192,.T.);
#529=EDGE_CURVE('',#432,#414,#193,.T.);
#530=EDGE_CURVE('',#430,#416,#194,.T.);
#531=EDGE_CURVE('',#415,#431,#195,.T.);
#532=EDGE_CURVE('',#417,#429,#196,.T.);
#533=EDGE_CURVE('',#424,#422,#197,.T.);
#534=EDGE_CURVE('',#428,#418,#198,.T.);
#535=EDGE_CURVE('',#433,#434,#371,.T.);
#536=EDGE_CURVE('',#434,#435,#199,.T.);
#537=EDGE_CURVE('',#435,#436,#372,.T.);
#538=EDGE_CURVE('',#436,#433,#200,.T.);
#539=EDGE_CURVE('',#437,#434,#201,.T.);
#540=EDGE_CURVE('',#438,#437,#202,.T.);
#541=EDGE_CURVE('',#435,#438,#203,.T.);
#542=EDGE_CURVE('',#439,#438,#373,.T.);
#543=EDGE_CURVE('',#437,#440,#374,.T.);
#544=EDGE_CURVE('',#440,#439,#204,.T.);
#545=EDGE_CURVE('',#441,#442,#375,.T.);
#546=EDGE_CURVE('',#442,#443,#205,.T.);
#547=EDGE_CURVE('',#443,#444,#376,.T.);
#548=EDGE_CURVE('',#444,#441,#206,.T.);
#549=EDGE_CURVE('',#444,#445,#207,.T.);
#550=EDGE_CURVE('',#446,#445,#208,.T.);
#551=EDGE_CURVE('',#441,#446,#209,.T.);
#552=EDGE_CURVE('',#447,#443,#210,.T.);
#553=EDGE_CURVE('',#447,#448,#211,.T.);
#554=EDGE_CURVE('',#448,#449,#212,.T.);
#555=EDGE_CURVE('',#450,#449,#377,.T.);
#556=EDGE_CURVE('',#450,#451,#213,.T.);
#557=EDGE_CURVE('',#451,#452,#214,.T.);
#558=EDGE_CURVE('',#452,#453,#215,.T.);
#559=EDGE_CURVE('',#454,#453,#216,.T.);
#560=EDGE_CURVE('',#455,#454,#378,.T.);
#561=EDGE_CURVE('',#456,#455,#217,.T.);
#562=EDGE_CURVE('',#457,#456,#379,.T.);
#563=EDGE_CURVE('',#457,#440,#218,.T.);
#564=EDGE_CURVE('',#458,#433,#219,.T.);
#565=EDGE_CURVE('',#445,#458,#380,.T.);
#566=EDGE_CURVE('',#459,#446,#381,.T.);
#567=EDGE_CURVE('',#458,#459,#220,.T.);
#568=EDGE_CURVE('',#459,#436,#221,.T.);
#569=EDGE_CURVE('',#460,#461,#382,.T.);
#570=EDGE_CURVE('',#461,#457,#222,.T.);
#571=EDGE_CURVE('',#456,#460,#223,.T.);
#572=EDGE_CURVE('',#462,#455,#224,.T.);
#573=EDGE_CURVE('',#460,#462,#225,.T.);
#574=EDGE_CURVE('',#463,#462,#383,.T.);
#575=EDGE_CURVE('',#454,#463,#226,.T.);
#576=EDGE_CURVE('',#464,#453,#227,.T.);
#577=EDGE_CURVE('',#463,#464,#228,.T.);
#578=EDGE_CURVE('',#439,#461,#229,.T.);
#579=EDGE_CURVE('',#452,#465,#230,.T.);
#580=EDGE_CURVE('',#464,#465,#231,.T.);
#581=EDGE_CURVE('',#466,#442,#232,.T.);
#582=EDGE_CURVE('',#447,#466,#233,.T.);
#583=EDGE_CURVE('',#467,#466,#234,.T.);
#584=EDGE_CURVE('',#467,#448,#235,.T.);
#585=EDGE_CURVE('',#420,#426,#236,.T.);
#586=EDGE_CURVE('',#425,#421,#237,.T.);
#587=EDGE_CURVE('',#419,#427,#238,.T.);
#588=EDGE_CURVE('',#449,#468,#239,.T.);
#589=EDGE_CURVE('',#468,#469,#384,.T.);
#590=EDGE_CURVE('',#469,#450,#240,.T.);
#591=EDGE_CURVE('',#469,#470,#241,.T.);
#592=EDGE_CURVE('',#470,#451,#242,.T.);
#593=EDGE_CURVE('',#465,#470,#243,.T.);
#594=EDGE_CURVE('',#468,#467,#244,.T.);
#595=EDGE_CURVE('',#418,#471,#385,.T.);
#596=EDGE_CURVE('',#472,#471,#245,.T.);
#597=EDGE_CURVE('',#472,#419,#386,.T.);
#598=EDGE_CURVE('',#428,#473,#387,.T.);
#599=EDGE_CURVE('',#471,#473,#246,.T.);
#600=EDGE_CURVE('',#474,#472,#247,.T.);
#601=EDGE_CURVE('',#427,#474,#388,.T.);
#602=EDGE_CURVE('',#473,#474,#248,.T.);
#603=EDGE_CURVE('',#451,#475,#389,.T.);
#604=EDGE_CURVE('',#476,#475,#249,.T.);
#605=EDGE_CURVE('',#476,#452,#390,.T.);
#606=EDGE_CURVE('',#470,#477,#391,.T.);
#607=EDGE_CURVE('',#475,#477,#250,.T.);
#608=EDGE_CURVE('',#478,#476,#251,.T.);
#609=EDGE_CURVE('',#465,#478,#392,.T.);
#610=EDGE_CURVE('',#477,#478,#252,.T.);
#611=EDGE_CURVE('',#475,#472,#253,.T.);
#612=EDGE_CURVE('',#474,#477,#254,.T.);
#613=EDGE_CURVE('',#471,#476,#255,.T.);
#614=EDGE_CURVE('',#479,#479,#393,.T.);
#615=EDGE_CURVE('',#478,#473,#256,.T.);
#616=EDGE_CURVE('',#479,#480,#257,.T.);
#617=EDGE_CURVE('',#480,#480,#394,.T.);
#618=ORIENTED_EDGE('',*,*,#481,.T.);
#619=ORIENTED_EDGE('',*,*,#482,.T.);
#620=ORIENTED_EDGE('',*,*,#483,.T.);
#621=ORIENTED_EDGE('',*,*,#484,.T.);
#622=ORIENTED_EDGE('',*,*,#482,.F.);
#623=ORIENTED_EDGE('',*,*,#485,.F.);
#624=ORIENTED_EDGE('',*,*,#486,.F.);
#625=ORIENTED_EDGE('',*,*,#487,.F.);
#626=ORIENTED_EDGE('',*,*,#488,.T.);
#627=ORIENTED_EDGE('',*,*,#489,.T.);
#628=ORIENTED_EDGE('',*,*,#490,.T.);
#629=ORIENTED_EDGE('',*,*,#491,.T.);
#630=ORIENTED_EDGE('',*,*,#489,.F.);
#631=ORIENTED_EDGE('',*,*,#492,.F.);
#632=ORIENTED_EDGE('',*,*,#493,.F.);
#633=ORIENTED_EDGE('',*,*,#494,.F.);
#634=ORIENTED_EDGE('',*,*,#495,.T.);
#635=ORIENTED_EDGE('',*,*,#496,.T.);
#636=ORIENTED_EDGE('',*,*,#497,.T.);
#637=ORIENTED_EDGE('',*,*,#498,.T.);
#638=ORIENTED_EDGE('',*,*,#498,.F.);
#639=ORIENTED_EDGE('',*,*,#499,.F.);
#640=ORIENTED_EDGE('',*,*,#500,.F.);
#641=ORIENTED_EDGE('',*,*,#501,.T.);
#642=ORIENTED_EDGE('',*,*,#497,.F.);
#643=ORIENTED_EDGE('',*,*,#502,.T.);
#644=ORIENTED_EDGE('',*,*,#503,.F.);
#645=ORIENTED_EDGE('',*,*,#485,.T.);
#646=ORIENTED_EDGE('',*,*,#481,.F.);
#647=ORIENTED_EDGE('',*,*,#504,.T.);
#648=ORIENTED_EDGE('',*,*,#490,.F.);
#649=ORIENTED_EDGE('',*,*,#494,.T.);
#650=ORIENTED_EDGE('',*,*,#505,.F.);
#651=ORIENTED_EDGE('',*,*,#506,.T.);
#652=ORIENTED_EDGE('',*,*,#507,.F.);
#653=ORIENTED_EDGE('',*,*,#508,.T.);
#654=ORIENTED_EDGE('',*,*,#509,.T.);
#655=ORIENTED_EDGE('',*,*,#510,.T.);
#656=ORIENTED_EDGE('',*,*,#511,.T.);
#657=ORIENTED_EDGE('',*,*,#512,.F.);
#658=ORIENTED_EDGE('',*,*,#513,.T.);
#659=ORIENTED_EDGE('',*,*,#514,.T.);
#660=ORIENTED_EDGE('',*,*,#499,.T.);
#661=ORIENTED_EDGE('',*,*,#515,.T.);
#662=ORIENTED_EDGE('',*,*,#486,.T.);
#663=ORIENTED_EDGE('',*,*,#503,.T.);
#664=ORIENTED_EDGE('',*,*,#516,.T.);
#665=ORIENTED_EDGE('',*,*,#495,.F.);
#666=ORIENTED_EDGE('',*,*,#501,.F.);
#667=ORIENTED_EDGE('',*,*,#517,.F.);
#668=ORIENTED_EDGE('',*,*,#518,.T.);
#669=ORIENTED_EDGE('',*,*,#519,.F.);
#670=ORIENTED_EDGE('',*,*,#520,.T.);
#671=ORIENTED_EDGE('',*,*,#521,.T.);
#672=ORIENTED_EDGE('',*,*,#522,.F.);
#673=ORIENTED_EDGE('',*,*,#523,.F.);
#674=ORIENTED_EDGE('',*,*,#524,.F.);
#675=ORIENTED_EDGE('',*,*,#525,.F.);
#676=ORIENTED_EDGE('',*,*,#526,.F.);
#677=ORIENTED_EDGE('',*,*,#492,.T.);
#678=ORIENTED_EDGE('',*,*,#488,.F.);
#679=ORIENTED_EDGE('',*,*,#527,.T.);
#680=ORIENTED_EDGE('',*,*,#483,.F.);
#681=ORIENTED_EDGE('',*,*,#487,.T.);
#682=ORIENTED_EDGE('',*,*,#515,.F.);
#683=ORIENTED_EDGE('',*,*,#528,.F.);
#684=ORIENTED_EDGE('',*,*,#526,.T.);
#685=ORIENTED_EDGE('',*,*,#529,.T.);
#686=ORIENTED_EDGE('',*,*,#505,.T.);
#687=ORIENTED_EDGE('',*,*,#493,.T.);
#688=ORIENTED_EDGE('',*,*,#524,.T.);
#689=ORIENTED_EDGE('',*,*,#530,.T.);
#690=ORIENTED_EDGE('',*,*,#507,.T.);
#691=ORIENTED_EDGE('',*,*,#531,.T.);
#692=ORIENTED_EDGE('',*,*,#530,.F.);
#693=ORIENTED_EDGE('',*,*,#523,.T.);
#694=ORIENTED_EDGE('',*,*,#532,.F.);
#695=ORIENTED_EDGE('',*,*,#508,.F.);
#696=ORIENTED_EDGE('',*,*,#484,.F.);
#697=ORIENTED_EDGE('',*,*,#527,.F.);
#698=ORIENTED_EDGE('',*,*,#491,.F.);
#699=ORIENTED_EDGE('',*,*,#504,.F.);
#700=ORIENTED_EDGE('',*,*,#529,.F.);
#701=ORIENTED_EDGE('',*,*,#525,.T.);
#702=ORIENTED_EDGE('',*,*,#531,.F.);
#703=ORIENTED_EDGE('',*,*,#506,.F.);
#704=ORIENTED_EDGE('',*,*,#496,.F.);
#705=ORIENTED_EDGE('',*,*,#528,.T.);
#706=ORIENTED_EDGE('',*,*,#516,.F.);
#707=ORIENTED_EDGE('',*,*,#502,.F.);
#708=ORIENTED_EDGE('',*,*,#500,.T.);
#709=ORIENTED_EDGE('',*,*,#514,.F.);
#710=ORIENTED_EDGE('',*,*,#533,.F.);
#711=ORIENTED_EDGE('',*,*,#517,.T.);
#712=ORIENTED_EDGE('',*,*,#532,.T.);
#713=ORIENTED_EDGE('',*,*,#522,.T.);
#714=ORIENTED_EDGE('',*,*,#534,.T.);
#715=ORIENTED_EDGE('',*,*,#509,.F.);
#716=ORIENTED_EDGE('',*,*,#535,.T.);
#717=ORIENTED_EDGE('',*,*,#536,.T.);
#718=ORIENTED_EDGE('',*,*,#537,.T.);
#719=ORIENTED_EDGE('',*,*,#538,.T.);
#720=ORIENTED_EDGE('',*,*,#536,.F.);
#721=ORIENTED_EDGE('',*,*,#539,.F.);
#722=ORIENTED_EDGE('',*,*,#540,.F.);
#723=ORIENTED_EDGE('',*,*,#541,.F.);
#724=ORIENTED_EDGE('',*,*,#542,.T.);
#725=ORIENTED_EDGE('',*,*,#540,.T.);
#726=ORIENTED_EDGE('',*,*,#543,.T.);
#727=ORIENTED_EDGE('',*,*,#544,.T.);
#728=ORIENTED_EDGE('',*,*,#545,.T.);
#729=ORIENTED_EDGE('',*,*,#546,.T.);
#730=ORIENTED_EDGE('',*,*,#547,.T.);
#731=ORIENTED_EDGE('',*,*,#548,.T.);
#732=ORIENTED_EDGE('',*,*,#548,.F.);
#733=ORIENTED_EDGE('',*,*,#549,.T.);
#734=ORIENTED_EDGE('',*,*,#550,.F.);
#735=ORIENTED_EDGE('',*,*,#551,.F.);
#736=ORIENTED_EDGE('',*,*,#547,.F.);
#737=ORIENTED_EDGE('',*,*,#552,.F.);
#738=ORIENTED_EDGE('',*,*,#553,.T.);
#739=ORIENTED_EDGE('',*,*,#554,.T.);
#740=ORIENTED_EDGE('',*,*,#555,.F.);
#741=ORIENTED_EDGE('',*,*,#556,.T.);
#742=ORIENTED_EDGE('',*,*,#557,.T.);
#743=ORIENTED_EDGE('',*,*,#558,.T.);
#744=ORIENTED_EDGE('',*,*,#559,.F.);
#745=ORIENTED_EDGE('',*,*,#560,.F.);
#746=ORIENTED_EDGE('',*,*,#561,.F.);
#747=ORIENTED_EDGE('',*,*,#562,.F.);
#748=ORIENTED_EDGE('',*,*,#563,.T.);
#749=ORIENTED_EDGE('',*,*,#543,.F.);
#750=ORIENTED_EDGE('',*,*,#539,.T.);
#751=ORIENTED_EDGE('',*,*,#535,.F.);
#752=ORIENTED_EDGE('',*,*,#564,.F.);
#753=ORIENTED_EDGE('',*,*,#565,.F.);
#754=ORIENTED_EDGE('',*,*,#549,.F.);
#755=ORIENTED_EDGE('',*,*,#566,.T.);
#756=ORIENTED_EDGE('',*,*,#550,.T.);
#757=ORIENTED_EDGE('',*,*,#565,.T.);
#758=ORIENTED_EDGE('',*,*,#567,.T.);
#759=ORIENTED_EDGE('',*,*,#538,.F.);
#760=ORIENTED_EDGE('',*,*,#568,.F.);
#761=ORIENTED_EDGE('',*,*,#567,.F.);
#762=ORIENTED_EDGE('',*,*,#564,.T.);
#763=ORIENTED_EDGE('',*,*,#569,.T.);
#764=ORIENTED_EDGE('',*,*,#570,.T.);
#765=ORIENTED_EDGE('',*,*,#562,.T.);
#766=ORIENTED_EDGE('',*,*,#571,.T.);
#767=ORIENTED_EDGE('',*,*,#571,.F.);
#768=ORIENTED_EDGE('',*,*,#561,.T.);
#769=ORIENTED_EDGE('',*,*,#572,.F.);
#770=ORIENTED_EDGE('',*,*,#573,.F.);
#771=ORIENTED_EDGE('',*,*,#574,.T.);
#772=ORIENTED_EDGE('',*,*,#572,.T.);
#773=ORIENTED_EDGE('',*,*,#560,.T.);
#774=ORIENTED_EDGE('',*,*,#575,.T.);
#775=ORIENTED_EDGE('',*,*,#575,.F.);
#776=ORIENTED_EDGE('',*,*,#559,.T.);
#777=ORIENTED_EDGE('',*,*,#576,.F.);
#778=ORIENTED_EDGE('',*,*,#577,.F.);
#779=ORIENTED_EDGE('',*,*,#544,.F.);
#780=ORIENTED_EDGE('',*,*,#563,.F.);
#781=ORIENTED_EDGE('',*,*,#570,.F.);
#782=ORIENTED_EDGE('',*,*,#578,.F.);
#783=ORIENTED_EDGE('',*,*,#576,.T.);
#784=ORIENTED_EDGE('',*,*,#558,.F.);
#785=ORIENTED_EDGE('',*,*,#579,.T.);
#786=ORIENTED_EDGE('',*,*,#580,.F.);
#787=ORIENTED_EDGE('',*,*,#546,.F.);
#788=ORIENTED_EDGE('',*,*,#581,.F.);
#789=ORIENTED_EDGE('',*,*,#582,.F.);
#790=ORIENTED_EDGE('',*,*,#552,.T.);
#791=ORIENTED_EDGE('',*,*,#582,.T.);
#792=ORIENTED_EDGE('',*,*,#583,.F.);
#793=ORIENTED_EDGE('',*,*,#584,.T.);
#794=ORIENTED_EDGE('',*,*,#553,.F.);
#795=ORIENTED_EDGE('',*,*,#512,.T.);
#796=ORIENTED_EDGE('',*,*,#585,.T.);
#797=ORIENTED_EDGE('',*,*,#519,.T.);
#798=ORIENTED_EDGE('',*,*,#586,.T.);
#799=ORIENTED_EDGE('',*,*,#585,.F.);
#800=ORIENTED_EDGE('',*,*,#511,.F.);
#801=ORIENTED_EDGE('',*,*,#587,.T.);
#802=ORIENTED_EDGE('',*,*,#520,.F.);
#803=ORIENTED_EDGE('',*,*,#555,.T.);
#804=ORIENTED_EDGE('',*,*,#588,.T.);
#805=ORIENTED_EDGE('',*,*,#589,.T.);
#806=ORIENTED_EDGE('',*,*,#590,.T.);
#807=ORIENTED_EDGE('',*,*,#590,.F.);
#808=ORIENTED_EDGE('',*,*,#591,.T.);
#809=ORIENTED_EDGE('',*,*,#592,.T.);
#810=ORIENTED_EDGE('',*,*,#556,.F.);
#811=ORIENTED_EDGE('',*,*,#545,.F.);
#812=ORIENTED_EDGE('',*,*,#551,.T.);
#813=ORIENTED_EDGE('',*,*,#566,.F.);
#814=ORIENTED_EDGE('',*,*,#568,.T.);
#815=ORIENTED_EDGE('',*,*,#537,.F.);
#816=ORIENTED_EDGE('',*,*,#541,.T.);
#817=ORIENTED_EDGE('',*,*,#542,.F.);
#818=ORIENTED_EDGE('',*,*,#578,.T.);
#819=ORIENTED_EDGE('',*,*,#569,.F.);
#820=ORIENTED_EDGE('',*,*,#573,.T.);
#821=ORIENTED_EDGE('',*,*,#574,.F.);
#822=ORIENTED_EDGE('',*,*,#577,.T.);
#823=ORIENTED_EDGE('',*,*,#580,.T.);
#824=ORIENTED_EDGE('',*,*,#593,.T.);
#825=ORIENTED_EDGE('',*,*,#591,.F.);
#826=ORIENTED_EDGE('',*,*,#589,.F.);
#827=ORIENTED_EDGE('',*,*,#594,.T.);
#828=ORIENTED_EDGE('',*,*,#583,.T.);
#829=ORIENTED_EDGE('',*,*,#581,.T.);
#830=ORIENTED_EDGE('',*,*,#510,.F.);
#831=ORIENTED_EDGE('',*,*,#595,.T.);
#832=ORIENTED_EDGE('',*,*,#596,.F.);
#833=ORIENTED_EDGE('',*,*,#597,.T.);
#834=ORIENTED_EDGE('',*,*,#534,.F.);
#835=ORIENTED_EDGE('',*,*,#598,.T.);
#836=ORIENTED_EDGE('',*,*,#599,.F.);
#837=ORIENTED_EDGE('',*,*,#595,.F.);
#838=ORIENTED_EDGE('',*,*,#587,.F.);
#839=ORIENTED_EDGE('',*,*,#597,.F.);
#840=ORIENTED_EDGE('',*,*,#600,.F.);
#841=ORIENTED_EDGE('',*,*,#601,.F.);
#842=ORIENTED_EDGE('',*,*,#586,.F.);
#843=ORIENTED_EDGE('',*,*,#518,.F.);
#844=ORIENTED_EDGE('',*,*,#533,.T.);
#845=ORIENTED_EDGE('',*,*,#513,.F.);
#846=ORIENTED_EDGE('',*,*,#521,.F.);
#847=ORIENTED_EDGE('',*,*,#601,.T.);
#848=ORIENTED_EDGE('',*,*,#602,.F.);
#849=ORIENTED_EDGE('',*,*,#598,.F.);
#850=ORIENTED_EDGE('',*,*,#557,.F.);
#851=ORIENTED_EDGE('',*,*,#603,.T.);
#852=ORIENTED_EDGE('',*,*,#604,.F.);
#853=ORIENTED_EDGE('',*,*,#605,.T.);
#854=ORIENTED_EDGE('',*,*,#592,.F.);
#855=ORIENTED_EDGE('',*,*,#606,.T.);
#856=ORIENTED_EDGE('',*,*,#607,.F.);
#857=ORIENTED_EDGE('',*,*,#603,.F.);
#858=ORIENTED_EDGE('',*,*,#579,.F.);
#859=ORIENTED_EDGE('',*,*,#605,.F.);
#860=ORIENTED_EDGE('',*,*,#608,.F.);
#861=ORIENTED_EDGE('',*,*,#609,.F.);
#862=ORIENTED_EDGE('',*,*,#588,.F.);
#863=ORIENTED_EDGE('',*,*,#554,.F.);
#864=ORIENTED_EDGE('',*,*,#584,.F.);
#865=ORIENTED_EDGE('',*,*,#594,.F.);
#866=ORIENTED_EDGE('',*,*,#593,.F.);
#867=ORIENTED_EDGE('',*,*,#609,.T.);
#868=ORIENTED_EDGE('',*,*,#610,.F.);
#869=ORIENTED_EDGE('',*,*,#606,.F.);
#870=ORIENTED_EDGE('',*,*,#600,.T.);
#871=ORIENTED_EDGE('',*,*,#611,.F.);
#872=ORIENTED_EDGE('',*,*,#607,.T.);
#873=ORIENTED_EDGE('',*,*,#612,.F.);
#874=ORIENTED_EDGE('',*,*,#596,.T.);
#875=ORIENTED_EDGE('',*,*,#613,.T.);
#876=ORIENTED_EDGE('',*,*,#604,.T.);
#877=ORIENTED_EDGE('',*,*,#611,.T.);
#878=ORIENTED_EDGE('',*,*,#614,.T.);
#879=ORIENTED_EDGE('',*,*,#599,.T.);
#880=ORIENTED_EDGE('',*,*,#615,.F.);
#881=ORIENTED_EDGE('',*,*,#608,.T.);
#882=ORIENTED_EDGE('',*,*,#613,.F.);
#883=ORIENTED_EDGE('',*,*,#614,.F.);
#884=ORIENTED_EDGE('',*,*,#616,.T.);
#885=ORIENTED_EDGE('',*,*,#617,.T.);
#886=ORIENTED_EDGE('',*,*,#616,.F.);
#887=ORIENTED_EDGE('',*,*,#602,.T.);
#888=ORIENTED_EDGE('',*,*,#612,.T.);
#889=ORIENTED_EDGE('',*,*,#610,.T.);
#890=ORIENTED_EDGE('',*,*,#615,.T.);
#891=ORIENTED_EDGE('',*,*,#617,.F.);
#892=CYLINDRICAL_SURFACE('',#978,0.5);
#893=CYLINDRICAL_SURFACE('',#982,0.5);
#894=CYLINDRICAL_SURFACE('',#986,0.5);
#895=CYLINDRICAL_SURFACE('',#995,0.5);
#896=CYLINDRICAL_SURFACE('',#1001,0.5);
#897=CYLINDRICAL_SURFACE('',#1002,0.5);
#898=CYLINDRICAL_SURFACE('',#1009,0.5);
#899=CYLINDRICAL_SURFACE('',#1013,0.5);
#900=CYLINDRICAL_SURFACE('',#1016,0.5);
#901=CYLINDRICAL_SURFACE('',#1025,0.5);
#902=CYLINDRICAL_SURFACE('',#1028,0.5);
#903=CYLINDRICAL_SURFACE('',#1031,0.5);
#904=CYLINDRICAL_SURFACE('',#1038,2.);
#905=CYLINDRICAL_SURFACE('',#1040,2.);
#906=CYLINDRICAL_SURFACE('',#1044,2.1);
#907=CYLINDRICAL_SURFACE('',#1052,0.1);
#908=CYLINDRICAL_SURFACE('',#1053,2.09999999999998);
#909=CYLINDRICAL_SURFACE('',#1061,0.0999999999999993);
#910=CYLINDRICAL_SURFACE('',#1066,4.);
#911=ADVANCED_FACE('',(#51),#892,.F.);
#912=ADVANCED_FACE('',(#52),#17,.F.);
#913=ADVANCED_FACE('',(#53),#893,.F.);
#914=ADVANCED_FACE('',(#54),#18,.F.);
#915=ADVANCED_FACE('',(#55),#894,.T.);
#916=ADVANCED_FACE('',(#56),#19,.F.);
#917=ADVANCED_FACE('',(#57),#20,.T.);
#918=ADVANCED_FACE('',(#58),#895,.T.);
#919=ADVANCED_FACE('',(#59),#21,.T.);
#920=ADVANCED_FACE('',(#60),#896,.T.);
#921=ADVANCED_FACE('',(#61),#897,.T.);
#922=ADVANCED_FACE('',(#62),#22,.F.);
#923=ADVANCED_FACE('',(#63),#23,.T.);
#924=ADVANCED_FACE('',(#64),#24,.F.);
#925=ADVANCED_FACE('',(#65),#25,.F.);
#926=ADVANCED_FACE('',(#66),#26,.T.);
#927=ADVANCED_FACE('',(#67),#27,.T.);
#928=ADVANCED_FACE('',(#68),#898,.F.);
#929=ADVANCED_FACE('',(#69),#28,.F.);
#930=ADVANCED_FACE('',(#70),#899,.F.);
#931=ADVANCED_FACE('',(#71),#900,.T.);
#932=ADVANCED_FACE('',(#72),#29,.T.);
#933=ADVANCED_FACE('',(#73),#30,.T.);
#934=ADVANCED_FACE('',(#74),#901,.T.);
#935=ADVANCED_FACE('',(#75),#31,.T.);
#936=ADVANCED_FACE('',(#76),#902,.T.);
#937=ADVANCED_FACE('',(#77),#32,.T.);
#938=ADVANCED_FACE('',(#78),#903,.T.);
#939=ADVANCED_FACE('',(#79),#33,.T.);
#940=ADVANCED_FACE('',(#80),#34,.T.);
#941=ADVANCED_FACE('',(#81),#35,.T.);
#942=ADVANCED_FACE('',(#82),#36,.T.);
#943=ADVANCED_FACE('',(#83),#37,.T.);
#944=ADVANCED_FACE('',(#84),#904,.T.);
#945=ADVANCED_FACE('',(#85),#38,.T.);
#946=ADVANCED_FACE('',(#86),#905,.T.);
#947=ADVANCED_FACE('',(#87),#39,.T.);
#948=ADVANCED_FACE('',(#88),#40,.F.);
#949=ADVANCED_FACE('',(#89),#906,.T.);
#950=ADVANCED_FACE('',(#90),#41,.T.);
#951=ADVANCED_FACE('',(#91),#42,.T.);
#952=ADVANCED_FACE('',(#92),#43,.T.);
#953=ADVANCED_FACE('',(#93),#907,.F.);
#954=ADVANCED_FACE('',(#94),#908,.T.);
#955=ADVANCED_FACE('',(#95),#44,.T.);
#956=ADVANCED_FACE('',(#96),#45,.T.);
#957=ADVANCED_FACE('',(#97),#46,.T.);
#958=ADVANCED_FACE('',(#98),#909,.F.);
#959=ADVANCED_FACE('',(#99),#47,.T.);
#960=ADVANCED_FACE('',(#100,#15),#48,.T.);
#961=ADVANCED_FACE('',(#101),#49,.T.);
#962=ADVANCED_FACE('',(#102),#910,.F.);
#963=ADVANCED_FACE('',(#103,#16),#50,.F.);
#964=CLOSED_SHELL('',(#911,#912,#913,#914,#915,#916,#917,#918,#919,#920,
#921,#922,#923,#924,#925,#926,#927,#928,#929,#930,#931,#932,#933,#934,#935,
#936,#937,#938,#939,#940,#941,#942,#943,#944,#945,#946,#947,#948,#949,#950,
#951,#952,#953,#954,#955,#956,#957,#958,#959,#960,#961,#962,#963));
#965=DERIVED_UNIT_ELEMENT(#967,1.);
#966=DERIVED_UNIT_ELEMENT(#1634,-3.);
#967=(
MASS_UNIT()
NAMED_UNIT(*)
SI_UNIT(.KILO.,.GRAM.)
);
#968=DERIVED_UNIT((#965,#966));
#969=MEASURE_REPRESENTATION_ITEM('density measure',
POSITIVE_RATIO_MEASURE(7850.),#968);
#970=PROPERTY_DEFINITION_REPRESENTATION(#975,#972);
#971=PROPERTY_DEFINITION_REPRESENTATION(#976,#973);
#972=REPRESENTATION('material name',(#974),#1631);
#973=REPRESENTATION('density',(#969),#1631);
#974=DESCRIPTIVE_REPRESENTATION_ITEM('\X2\94A2\X0\','\X2\94A2\X0\');
#975=PROPERTY_DEFINITION('material property','material name',#1641);
#976=PROPERTY_DEFINITION('material property','density of part',#1641);
#977=AXIS2_PLACEMENT_3D('',#1352,#1069,#1070);
#978=AXIS2_PLACEMENT_3D('',#1353,#1071,#1072);
#979=AXIS2_PLACEMENT_3D('',#1356,#1073,#1074);
#980=AXIS2_PLACEMENT_3D('',#1360,#1076,#1077);
#981=AXIS2_PLACEMENT_3D('',#1362,#1079,#1080);
#982=AXIS2_PLACEMENT_3D('',#1368,#1084,#1085);
#983=AXIS2_PLACEMENT_3D('',#1371,#1086,#1087);
#984=AXIS2_PLACEMENT_3D('',#1375,#1089,#1090);
#985=AXIS2_PLACEMENT_3D('',#1377,#1092,#1093);
#986=AXIS2_PLACEMENT_3D('',#1383,#1097,#1098);
#987=AXIS2_PLACEMENT_3D('',#1386,#1099,#1100);
#988=AXIS2_PLACEMENT_3D('',#1390,#1102,#1103);
#989=AXIS2_PLACEMENT_3D('',#1392,#1105,#1106);
#990=AXIS2_PLACEMENT_3D('',#1398,#1110,#1111);
#991=AXIS2_PLACEMENT_3D('',#1401,#1113,#1114);
#992=AXIS2_PLACEMENT_3D('',#1404,#1116,#1117);
#993=AXIS2_PLACEMENT_3D('',#1408,#1119,#1120);
#994=AXIS2_PLACEMENT_3D('',#1418,#1125,#1126);
#995=AXIS2_PLACEMENT_3D('',#1422,#1129,#1130);
#996=AXIS2_PLACEMENT_3D('',#1424,#1131,#1132);
#997=AXIS2_PLACEMENT_3D('',#1426,#1134,#1135);
#998=AXIS2_PLACEMENT_3D('',#1432,#1138,#1139);
#999=AXIS2_PLACEMENT_3D('',#1442,#1144,#1145);
#1000=AXIS2_PLACEMENT_3D('',#1445,#1147,#1148);
#1001=AXIS2_PLACEMENT_3D('',#1448,#1151,#1152);
#1002=AXIS2_PLACEMENT_3D('',#1450,#1154,#1155);
#1003=AXIS2_PLACEMENT_3D('',#1453,#1158,#1159);
#1004=AXIS2_PLACEMENT_3D('',#1455,#1161,#1162);
#1005=AXIS2_PLACEMENT_3D('',#1456,#1163,#1164);
#1006=AXIS2_PLACEMENT_3D('',#1457,#1165,#1166);
#1007=AXIS2_PLACEMENT_3D('',#1458,#1167,#1168);
#1008=AXIS2_PLACEMENT_3D('',#1460,#1170,#1171);
#1009=AXIS2_PLACEMENT_3D('',#1462,#1173,#1174);
#1010=AXIS2_PLACEMENT_3D('',#1465,#1175,#1176);
#1011=AXIS2_PLACEMENT_3D('',#1469,#1178,#1179);
#1012=AXIS2_PLACEMENT_3D('',#1471,#1181,#1182);
#1013=AXIS2_PLACEMENT_3D('',#1477,#1186,#1187);
#1014=AXIS2_PLACEMENT_3D('',#1479,#1188,#1189);
#1015=AXIS2_PLACEMENT_3D('',#1481,#1190,#1191);
#1016=AXIS2_PLACEMENT_3D('',#1483,#1193,#1194);
#1017=AXIS2_PLACEMENT_3D('',#1486,#1195,#1196);
#1018=AXIS2_PLACEMENT_3D('',#1490,#1198,#1199);
#1019=AXIS2_PLACEMENT_3D('',#1492,#1201,#1202);
#1020=AXIS2_PLACEMENT_3D('',#1498,#1206,#1207);
#1021=AXIS2_PLACEMENT_3D('',#1506,#1211,#1212);
#1022=AXIS2_PLACEMENT_3D('',#1516,#1217,#1218);
#1023=AXIS2_PLACEMENT_3D('',#1520,#1220,#1221);
#1024=AXIS2_PLACEMENT_3D('',#1524,#1224,#1225);
#1025=AXIS2_PLACEMENT_3D('',#1525,#1226,#1227);
#1026=AXIS2_PLACEMENT_3D('',#1527,#1228,#1229);
#1027=AXIS2_PLACEMENT_3D('',#1529,#1231,#1232);
#1028=AXIS2_PLACEMENT_3D('',#1531,#1234,#1235);
#1029=AXIS2_PLACEMENT_3D('',#1534,#1236,#1237);
#1030=AXIS2_PLACEMENT_3D('',#1537,#1240,#1241);
#1031=AXIS2_PLACEMENT_3D('',#1541,#1244,#1245);
#1032=AXIS2_PLACEMENT_3D('',#1543,#1246,#1247);
#1033=AXIS2_PLACEMENT_3D('',#1545,#1249,#1250);
#1034=AXIS2_PLACEMENT_3D('',#1549,#1253,#1254);
#1035=AXIS2_PLACEMENT_3D('',#1551,#1256,#1257);
#1036=AXIS2_PLACEMENT_3D('',#1555,#1260,#1261);
#1037=AXIS2_PLACEMENT_3D('',#1559,#1264,#1265);
#1038=AXIS2_PLACEMENT_3D('',#1563,#1268,#1269);
#1039=AXIS2_PLACEMENT_3D('',#1566,#1272,#1273);
#1040=AXIS2_PLACEMENT_3D('',#1568,#1275,#1276);
#1041=AXIS2_PLACEMENT_3D('',#1572,#1278,#1279);
#1042=AXIS2_PLACEMENT_3D('',#1574,#1281,#1282);
#1043=AXIS2_PLACEMENT_3D('',#1578,#1285,#1286);
#1044=AXIS2_PLACEMENT_3D('',#1581,#1289,#1290);
#1045=AXIS2_PLACEMENT_3D('',#1583,#1291,#1292);
#1046=AXIS2_PLACEMENT_3D('',#1586,#1294,#1295);
#1047=AXIS2_PLACEMENT_3D('',#1587,#1296,#1297);
#1048=AXIS2_PLACEMENT_3D('',#1589,#1298,#1299);
#1049=AXIS2_PLACEMENT_3D('',#1591,#1301,#1302);
#1050=AXIS2_PLACEMENT_3D('',#1594,#1304,#1305);
#1051=AXIS2_PLACEMENT_3D('',#1595,#1306,#1307);
#1052=AXIS2_PLACEMENT_3D('',#1596,#1308,#1309);
#1053=AXIS2_PLACEMENT_3D('',#1598,#1311,#1312);
#1054=AXIS2_PLACEMENT_3D('',#1600,#1313,#1314);
#1055=AXIS2_PLACEMENT_3D('',#1603,#1316,#1317);
#1056=AXIS2_PLACEMENT_3D('',#1604,#1318,#1319);
#1057=AXIS2_PLACEMENT_3D('',#1606,#1320,#1321);
#1058=AXIS2_PLACEMENT_3D('',#1608,#1323,#1324);
#1059=AXIS2_PLACEMENT_3D('',#1611,#1326,#1327);
#1060=AXIS2_PLACEMENT_3D('',#1612,#1328,#1329);
#1061=AXIS2_PLACEMENT_3D('',#1613,#1330,#1331);
#1062=AXIS2_PLACEMENT_3D('',#1615,#1333,#1334);
#1063=AXIS2_PLACEMENT_3D('',#1618,#1337,#1338);
#1064=AXIS2_PLACEMENT_3D('',#1621,#1340,#1341);
#1065=AXIS2_PLACEMENT_3D('',#1622,#1342,#1343);
#1066=AXIS2_PLACEMENT_3D('',#1624,#1345,#1346);
#1067=AXIS2_PLACEMENT_3D('',#1627,#1348,#1349);
#1068=AXIS2_PLACEMENT_3D('',#1628,#1350,#1351);
#1069=DIRECTION('axis',(0.,0.,1.));
#1070=DIRECTION('refdir',(1.,0.,0.));
#1071=DIRECTION('center_axis',(1.,0.,0.));
#1072=DIRECTION('ref_axis',(0.,0.707106781186548,-0.707106781186548));
#1073=DIRECTION('center_axis',(-1.,0.,6.12323399573677E-17));
#1074=DIRECTION('ref_axis',(0.,0.707106781186548,-0.707106781186548));
#1075=DIRECTION('',(1.,0.,0.));
#1076=DIRECTION('center_axis',(1.,0.,-3.06161699786838E-17));
#1077=DIRECTION('ref_axis',(0.,0.707106781186548,-0.707106781186548));
#1078=DIRECTION('',(-1.,0.,0.));
#1079=DIRECTION('center_axis',(0.,2.77555756156289E-16,-1.));
#1080=DIRECTION('ref_axis',(0.,1.,2.77555756156289E-16));
#1081=DIRECTION('',(0.,1.,0.));
#1082=DIRECTION('',(-1.,0.,0.));
#1083=DIRECTION('',(0.,-1.,0.));
#1084=DIRECTION('center_axis',(-1.,0.,-2.77555756156289E-16));
#1085=DIRECTION('ref_axis',(0.,0.707106781186548,0.707106781186548));
#1086=DIRECTION('center_axis',(1.,0.,-3.06161699786838E-17));
#1087=DIRECTION('ref_axis',(0.,0.707106781186548,0.707106781186548));
#1088=DIRECTION('',(-1.,0.,-2.77555756156289E-16));
#1089=DIRECTION('center_axis',(-1.,0.,6.12323399573677E-17));
#1090=DIRECTION('ref_axis',(0.,0.707106781186548,0.707106781186548));
#1091=DIRECTION('',(1.,0.,2.77555756156289E-16));
#1092=DIRECTION('center_axis',(-2.77555756156289E-16,3.83567918874328E-48,
1.));
#1093=DIRECTION('ref_axis',(-1.38194906921096E-32,-1.,0.));
#1094=DIRECTION('',(0.,1.,0.));
#1095=DIRECTION('',(1.,0.,2.77555756156289E-16));
#1096=DIRECTION('',(-1.38194906921096E-32,-1.,0.));
#1097=DIRECTION('center_axis',(1.,0.,0.));
#1098=DIRECTION('ref_axis',(0.,-0.707106781186548,-0.707106781186548));
#1099=DIRECTION('center_axis',(-1.,0.,3.06161699786838E-17));
#1100=DIRECTION('ref_axis',(0.,-0.707106781186548,-0.707106781186548));
#1101=DIRECTION('',(-1.,0.,0.));
#1102=DIRECTION('center_axis',(1.,0.,-6.12323399573677E-17));
#1103=DIRECTION('ref_axis',(0.,-0.707106781186548,-0.707106781186548));
#1104=DIRECTION('',(1.,0.,0.));
#1105=DIRECTION('center_axis',(0.,0.,1.));
#1106=DIRECTION('ref_axis',(-1.38194906921096E-32,-1.,0.));
#1107=DIRECTION('',(-1.38194906921096E-32,-1.,0.));
#1108=DIRECTION('',(-1.,0.,0.));
#1109=DIRECTION('',(-1.38194906921096E-32,-1.,0.));
#1110=DIRECTION('center_axis',(-1.,0.,6.12323399573677E-17));
#1111=DIRECTION('ref_axis',(6.12323399573677E-17,0.,1.));
#1112=DIRECTION('',(0.,0.,1.));
#1113=DIRECTION('center_axis',(1.,0.,-6.12323399573677E-17));
#1114=DIRECTION('ref_axis',(0.,-0.707106781186551,0.707106781186544));
#1115=DIRECTION('',(6.12323399573677E-17,0.,1.));
#1116=DIRECTION('center_axis',(1.,0.,-6.12323399573677E-17));
#1117=DIRECTION('ref_axis',(0.,-0.707106781186549,-0.707106781186546));
#1118=DIRECTION('',(0.,0.,1.));
#1119=DIRECTION('center_axis',(1.,0.,-6.12323399573677E-17));
#1120=DIRECTION('ref_axis',(0.,-0.707106781186549,0.707106781186546));
#1121=DIRECTION('',(0.,1.,0.));
#1122=DIRECTION('',(6.12323399573677E-17,0.,1.));
#1123=DIRECTION('',(0.,1.,0.));
#1124=DIRECTION('',(0.,-7.65671051465625E-17,-1.));
#1125=DIRECTION('center_axis',(1.,0.,-6.12323399573677E-17));
#1126=DIRECTION('ref_axis',(0.,0.707106781186548,-0.707106781186548));
#1127=DIRECTION('',(0.,-1.,0.));
#1128=DIRECTION('',(6.12323399573677E-17,0.,1.));
#1129=DIRECTION('center_axis',(1.,0.,0.));
#1130=DIRECTION('ref_axis',(0.,-0.707106781186551,0.707106781186544));
#1131=DIRECTION('center_axis',(-1.,0.,3.06161699786838E-17));
#1132=DIRECTION('ref_axis',(0.,-0.707106781186551,0.707106781186544));
#1133=DIRECTION('',(1.,0.,0.));
#1134=DIRECTION('center_axis',(1.,0.,-3.06161699786838E-17));
#1135=DIRECTION('ref_axis',(-3.06161699786838E-17,0.,-1.));
#1136=DIRECTION('',(0.,7.65671051465625E-17,1.));
#1137=DIRECTION('',(0.,1.,0.));
#1138=DIRECTION('center_axis',(-1.,0.,3.06161699786838E-17));
#1139=DIRECTION('ref_axis',(0.,0.707106781186548,-0.707106781186548));
#1140=DIRECTION('',(0.,7.65671051465625E-17,1.));
#1141=DIRECTION('',(0.,-1.,0.));
#1142=DIRECTION('',(0.,7.65671051465625E-17,1.));
#1143=DIRECTION('',(0.,1.,0.));
#1144=DIRECTION('center_axis',(-1.,0.,3.06161699786838E-17));
#1145=DIRECTION('ref_axis',(0.,-0.707106781186549,0.707106781186546));
#1146=DIRECTION('',(0.,0.,1.));
#1147=DIRECTION('center_axis',(-1.,0.,3.06161699786838E-17));
#1148=DIRECTION('ref_axis',(0.,-0.707106781186549,-0.707106781186546));
#1149=DIRECTION('',(-3.06161699786838E-17,0.,-1.));
#1150=DIRECTION('',(0.,0.,1.));
#1151=DIRECTION('center_axis',(1.,0.,2.77555756156289E-16));
#1152=DIRECTION('ref_axis',(0.,-0.707106781186549,-0.707106781186546));
#1153=DIRECTION('',(-1.,0.,-2.77555756156289E-16));
#1154=DIRECTION('center_axis',(1.,0.,2.77555756156289E-16));
#1155=DIRECTION('ref_axis',(0.,-0.707106781186549,0.707106781186546));
#1156=DIRECTION('',(-1.,0.,-2.77555756156289E-16));
#1157=DIRECTION('',(1.,0.,2.77555756156289E-16));
#1158=DIRECTION('center_axis',(2.77555756156289E-16,0.,-1.));
#1159=DIRECTION('ref_axis',(0.,1.,0.));
#1160=DIRECTION('',(1.,0.,2.77555756156289E-16));
#1161=DIRECTION('center_axis',(0.,-1.,0.));
#1162=DIRECTION('ref_axis',(0.,0.,1.));
#1163=DIRECTION('center_axis',(0.,1.,0.));
#1164=DIRECTION('ref_axis',(0.,0.,1.));
#1165=DIRECTION('center_axis',(0.,1.,0.));
#1166=DIRECTION('ref_axis',(0.,0.,1.));
#1167=DIRECTION('center_axis',(0.,-1.,0.));
#1168=DIRECTION('ref_axis',(6.12323399573677E-17,0.,1.));
#1169=DIRECTION('',(-1.,0.,6.12323399573677E-17));
#1170=DIRECTION('center_axis',(0.,-1.,0.));
#1171=DIRECTION('ref_axis',(6.12323399573677E-17,0.,1.));
#1172=DIRECTION('',(-1.,0.,6.12323399573677E-17));
#1173=DIRECTION('center_axis',(-1.,0.,0.));
#1174=DIRECTION('ref_axis',(0.,0.707106781186548,-0.707106781186548));
#1175=DIRECTION('center_axis',(1.,7.65671051465625E-17,6.12323399573677E-17));
#1176=DIRECTION('ref_axis',(0.,0.707106781186548,-0.707106781186548));
#1177=DIRECTION('',(-1.,0.,0.));
#1178=DIRECTION('center_axis',(-1.,-6.51107520390081E-16,5.3582414870762E-16));
#1179=DIRECTION('ref_axis',(0.,0.707106781186548,-0.707106781186548));
#1180=DIRECTION('',(1.,0.,0.));
#1181=DIRECTION('center_axis',(0.,1.,0.));
#1182=DIRECTION('ref_axis',(0.,0.,1.));
#1183=DIRECTION('',(6.12323399573677E-17,0.,-1.));
#1184=DIRECTION('',(1.,0.,-2.77555756156289E-16));
#1185=DIRECTION('',(5.3582414870762E-16,0.,1.));
#1186=DIRECTION('center_axis',(1.,0.,-2.77555756156289E-16));
#1187=DIRECTION('ref_axis',(0.,0.707106781186548,0.707106781186548));
#1188=DIRECTION('center_axis',(-1.,-6.51107520390081E-16,5.3582414870762E-16));
#1189=DIRECTION('ref_axis',(0.,0.707106781186548,0.707106781186548));
#1190=DIRECTION('center_axis',(1.,7.65671051465625E-17,6.12323399573677E-17));
#1191=DIRECTION('ref_axis',(0.,0.707106781186548,0.707106781186548));
#1192=DIRECTION('',(-1.,0.,2.77555756156289E-16));
#1193=DIRECTION('center_axis',(-1.,0.,0.));
#1194=DIRECTION('ref_axis',(0.,-0.707106781186551,-0.707106781186544));
#1195=DIRECTION('center_axis',(1.,6.51107520390081E-16,-5.3582414870762E-16));
#1196=DIRECTION('ref_axis',(0.,-0.707106781186551,-0.707106781186544));
#1197=DIRECTION('',(1.,0.,0.));
#1198=DIRECTION('center_axis',(-1.,-7.65671051465625E-17,-6.12323399573677E-17));
#1199=DIRECTION('ref_axis',(0.,-0.707106781186551,-0.707106781186544));
#1200=DIRECTION('',(-1.,0.,0.));
#1201=DIRECTION('center_axis',(0.,-1.,0.));
#1202=DIRECTION('ref_axis',(0.,0.,1.));
#1203=DIRECTION('',(0.,0.,1.));
#1204=DIRECTION('',(1.,0.,0.));
#1205=DIRECTION('',(0.,0.,1.));
#1206=DIRECTION('center_axis',(1.,7.65671051465625E-17,6.12323399573677E-17));
#1207=DIRECTION('ref_axis',(6.12323399573677E-17,-7.65671051465625E-17,
-1.));
#1208=DIRECTION('',(1.38194906921096E-32,-1.,0.));
#1209=DIRECTION('',(9.06304509898087E-15,7.65671051465632E-17,-1.));
#1210=DIRECTION('',(-1.23119905075673E-15,1.,9.89246998493587E-16));
#1211=DIRECTION('center_axis',(-1.,-7.65671051465625E-17,-6.12323399573677E-17));
#1212=DIRECTION('ref_axis',(0.,0.707106781186548,-0.707106781186548));
#1213=DIRECTION('',(-6.12323399573677E-17,0.,1.));
#1214=DIRECTION('',(7.65671051465625E-17,-1.,0.));
#1215=DIRECTION('',(9.06304509898087E-15,7.65671051465632E-17,-1.));
#1216=DIRECTION('',(0.,1.,0.));
#1217=DIRECTION('center_axis',(-1.,-7.65671051465625E-17,-6.12323399573677E-17));
#1218=DIRECTION('ref_axis',(0.,-0.707106781186547,0.707106781186548));
#1219=DIRECTION('',(0.,0.,1.));
#1220=DIRECTION('center_axis',(-1.,-7.65671051465625E-17,-6.12323399573677E-17));
#1221=DIRECTION('ref_axis',(0.,-0.707106781186549,-0.707106781186546));
#1222=DIRECTION('',(-7.65671051465625E-17,1.,2.12516407656523E-32));
#1223=DIRECTION('',(0.,1.,2.77555756156289E-16));
#1224=DIRECTION('center_axis',(-1.,-7.65671051465625E-17,-6.12323399573677E-17));
#1225=DIRECTION('ref_axis',(0.,-0.707106781186546,0.707106781186549));
#1226=DIRECTION('center_axis',(-1.,0.,0.));
#1227=DIRECTION('ref_axis',(0.,-0.707106781186546,0.707106781186549));
#1228=DIRECTION('center_axis',(1.,6.51107520390081E-16,-5.3582414870762E-16));
#1229=DIRECTION('ref_axis',(0.,-0.707106781186546,0.707106781186549));
#1230=DIRECTION('',(-1.,0.,0.));
#1231=DIRECTION('center_axis',(0.,-2.77555756156289E-16,1.));
#1232=DIRECTION('ref_axis',(0.,1.,2.77555756156289E-16));
#1233=DIRECTION('',(-6.51107520390081E-16,1.,-1.38371031231446E-47));
#1234=DIRECTION('center_axis',(-1.,0.,2.77555756156289E-16));
#1235=DIRECTION('ref_axis',(0.,-0.707106781186549,-0.707106781186546));
#1236=DIRECTION('center_axis',(1.,6.51107520390081E-16,-5.3582414870762E-16));
#1237=DIRECTION('ref_axis',(0.,-0.707106781186549,-0.707106781186546));
#1238=DIRECTION('',(1.,0.,-2.77555756156289E-16));
#1239=DIRECTION('',(-1.,0.,2.77555756156289E-16));
#1240=DIRECTION('center_axis',(0.,-1.,0.));
#1241=DIRECTION('ref_axis',(0.,0.,1.));
#1242=DIRECTION('',(1.,0.,-2.77555756156289E-16));
#1243=DIRECTION('',(0.,0.,1.));
#1244=DIRECTION('center_axis',(-1.,0.,2.77555756156289E-16));
#1245=DIRECTION('ref_axis',(0.,-0.707106781186547,0.707106781186548));
#1246=DIRECTION('center_axis',(1.,6.51107520390081E-16,-5.3582414870762E-16));
#1247=DIRECTION('ref_axis',(0.,-0.707106781186547,0.707106781186548));
#1248=DIRECTION('',(-1.,0.,2.77555756156289E-16));
#1249=DIRECTION('center_axis',(2.77555756156289E-16,0.,1.));
#1250=DIRECTION('ref_axis',(0.,1.,0.));
#1251=DIRECTION('',(1.,7.65671051465625E-17,-2.77555756156289E-16));
#1252=DIRECTION('',(0.,1.,0.));
#1253=DIRECTION('center_axis',(-2.77555756156289E-16,-3.83567918874328E-48,
-1.));
#1254=DIRECTION('ref_axis',(1.38194906921096E-32,-1.,0.));
#1255=DIRECTION('',(1.38194906921096E-32,-1.,0.));
#1256=DIRECTION('center_axis',(7.65671051465625E-17,-1.,-7.65671051465625E-17));
#1257=DIRECTION('ref_axis',(9.06304509898087E-15,7.65671051465632E-17,-1.));
#1258=DIRECTION('',(-1.,-7.65671051465625E-17,-6.12323399573677E-17));
#1259=DIRECTION('',(-9.06304509898087E-15,-7.65671051465632E-17,1.));
#1260=DIRECTION('center_axis',(0.,0.,-1.));
#1261=DIRECTION('ref_axis',(1.38194906921096E-32,-1.,0.));
#1262=DIRECTION('',(1.38194906921096E-32,-1.,0.));
#1263=DIRECTION('',(-1.,-7.65671051465625E-17,0.));
#1264=DIRECTION('center_axis',(7.65671051465625E-17,-1.,-7.65671051465625E-17));
#1265=DIRECTION('ref_axis',(9.06304509898087E-15,7.65671051465632E-17,-1.));
#1266=DIRECTION('',(-9.06304509898087E-15,-7.65671051465632E-17,1.));
#1267=DIRECTION('',(1.,7.65671051465625E-17,6.12323399573677E-17));
#1268=DIRECTION('center_axis',(-1.,0.,6.12323399573677E-17));
#1269=DIRECTION('ref_axis',(0.,0.707106781186548,-0.707106781186548));
#1270=DIRECTION('',(1.,0.,-6.12323399573677E-17));
#1271=DIRECTION('',(-1.,0.,6.12323399573677E-17));
#1272=DIRECTION('center_axis',(-4.68838301188583E-33,1.,-7.65671051465625E-17));
#1273=DIRECTION('ref_axis',(0.,-7.65671051465625E-17,-1.));
#1274=DIRECTION('',(1.,0.,-6.12323399573677E-17));
#1275=DIRECTION('center_axis',(1.,7.65671051465625E-17,6.12323399573676E-17));
#1276=DIRECTION('ref_axis',(0.,0.707106781186548,-0.707106781186548));
#1277=DIRECTION('',(-1.,-7.65671051465625E-17,-6.12323399573676E-17));
#1278=DIRECTION('center_axis',(1.,6.51107520390081E-16,-5.3582414870762E-16));
#1279=DIRECTION('ref_axis',(0.,0.707106781186548,-0.707106781186548));
#1280=DIRECTION('',(1.,7.65671051465625E-17,6.12323399573676E-17));
#1281=DIRECTION('center_axis',(-7.65671051465625E-17,1.,0.));
#1282=DIRECTION('ref_axis',(-6.12323399573677E-17,0.,1.));
#1283=DIRECTION('',(1.13288063737261E-14,-7.65671051465616E-17,1.));
#1284=DIRECTION('',(1.,7.65671051465625E-17,6.12323399573677E-17));
#1285=DIRECTION('center_axis',(1.,6.51107520390081E-16,-5.3582414870762E-16));
#1286=DIRECTION('ref_axis',(-5.3582414870762E-16,-7.65671051465626E-17,
-1.));
#1287=DIRECTION('',(-6.51107520390081E-16,1.,-3.51804540254383E-32));
#1288=DIRECTION('',(1.23119905075673E-15,-1.,-9.89246998493587E-16));
#1289=DIRECTION('center_axis',(0.,-1.,0.));
#1290=DIRECTION('ref_axis',(0.,0.,1.));
#1291=DIRECTION('center_axis',(0.,1.,0.));
#1292=DIRECTION('ref_axis',(-1.,0.,5.78241158658936E-17));
#1293=DIRECTION('',(0.,-1.,0.));
#1294=DIRECTION('center_axis',(0.,-1.,0.));
#1295=DIRECTION('ref_axis',(-3.1720657846433E-15,0.,1.));
#1296=DIRECTION('center_axis',(0.,-1.,0.));
#1297=DIRECTION('ref_axis',(0.,0.,-1.));
#1298=DIRECTION('center_axis',(0.,1.,0.));
#1299=DIRECTION('ref_axis',(-1.,0.,0.));
#1300=DIRECTION('',(0.,0.,-1.));
#1301=DIRECTION('center_axis',(0.,1.,0.));
#1302=DIRECTION('ref_axis',(0.,0.,1.));
#1303=DIRECTION('',(0.,0.,1.));
#1304=DIRECTION('center_axis',(0.,1.,0.));
#1305=DIRECTION('ref_axis',(-1.,0.,0.));
#1306=DIRECTION('center_axis',(-6.12323399573677E-17,0.,-1.));
#1307=DIRECTION('ref_axis',(0.,-1.,0.));
#1308=DIRECTION('center_axis',(0.,-1.,0.));
#1309=DIRECTION('ref_axis',(0.,0.,1.));
#1310=DIRECTION('',(0.,1.,0.));
#1311=DIRECTION('center_axis',(-7.65671051465625E-17,1.,0.));
#1312=DIRECTION('ref_axis',(0.,0.,1.));
#1313=DIRECTION('center_axis',(7.65671051465625E-17,-1.,0.));
#1314=DIRECTION('ref_axis',(1.,0.,-1.71820230001514E-15));
#1315=DIRECTION('',(0.,1.,0.));
#1316=DIRECTION('center_axis',(-7.65671051465625E-17,1.,0.));
#1317=DIRECTION('ref_axis',(2.53765262771464E-14,0.,1.));
#1318=DIRECTION('center_axis',(-7.65671051465625E-17,1.,0.));
#1319=DIRECTION('ref_axis',(0.,0.,1.));
#1320=DIRECTION('center_axis',(7.65671051465625E-17,-1.,0.));
#1321=DIRECTION('ref_axis',(1.,0.,0.));
#1322=DIRECTION('',(0.,0.,-1.));
#1323=DIRECTION('center_axis',(7.65671051465625E-17,-1.,0.));
#1324=DIRECTION('ref_axis',(0.,0.,-1.));
#1325=DIRECTION('',(0.,0.,1.));
#1326=DIRECTION('center_axis',(7.65671051465625E-17,-1.,0.));
#1327=DIRECTION('ref_axis',(1.,0.,-1.73472347597654E-15));
#1328=DIRECTION('center_axis',(6.12323399573676E-17,9.89246998493587E-16,
-1.));
#1329=DIRECTION('ref_axis',(-1.23119905075673E-15,1.,9.89246998493587E-16));
#1330=DIRECTION('center_axis',(-7.65671051465625E-17,1.,0.));
#1331=DIRECTION('ref_axis',(0.,0.,1.));
#1332=DIRECTION('',(0.,-1.,0.));
#1333=DIRECTION('center_axis',(-8.22387425648264E-17,1.,0.));
#1334=DIRECTION('ref_axis',(-1.,-8.22387425648264E-17,0.));
#1335=DIRECTION('',(-1.,-8.22387425648264E-17,0.));
#1336=DIRECTION('',(1.,8.22387425648264E-17,0.));
#1337=DIRECTION('center_axis',(0.,0.,1.));
#1338=DIRECTION('ref_axis',(1.,0.,0.));
#1339=DIRECTION('',(1.,0.,0.));
#1340=DIRECTION('center_axis',(0.,0.,-1.));
#1341=DIRECTION('ref_axis',(1.,0.,0.));
#1342=DIRECTION('center_axis',(0.,-1.,0.));
#1343=DIRECTION('ref_axis',(1.,0.,0.));
#1344=DIRECTION('',(-1.,0.,0.));
#1345=DIRECTION('center_axis',(0.,0.,1.));
#1346=DIRECTION('ref_axis',(1.,0.,0.));
#1347=DIRECTION('',(0.,0.,-1.));
#1348=DIRECTION('center_axis',(0.,0.,-1.));
#1349=DIRECTION('ref_axis',(1.,0.,0.));
#1350=DIRECTION('center_axis',(0.,0.,1.));
#1351=DIRECTION('ref_axis',(1.,0.,0.));
#1352=CARTESIAN_POINT('',(0.,0.,0.));
#1353=CARTESIAN_POINT('Origin',(-12.5,-9.5,-8.5));
#1354=CARTESIAN_POINT('',(-13.5,-9.,-8.5));
#1355=CARTESIAN_POINT('',(-13.5,-9.5,-9.));
#1356=CARTESIAN_POINT('Origin',(-13.5,-9.5,-8.5));
#1357=CARTESIAN_POINT('',(-11.5,-9.5,-9.));
#1358=CARTESIAN_POINT('',(-12.5,-9.5,-9.));
#1359=CARTESIAN_POINT('',(-11.5,-9.,-8.5));
#1360=CARTESIAN_POINT('Origin',(-11.5,-9.5,-8.5));
#1361=CARTESIAN_POINT('',(-12.5,-9.,-8.5));
#1362=CARTESIAN_POINT('Origin',(-13.5,-14.5,-9.));
#1363=CARTESIAN_POINT('',(-13.5,-14.,-9.));
#1364=CARTESIAN_POINT('',(-13.5,-4.25000000000001,-9.));
#1365=CARTESIAN_POINT('',(-11.5,-14.,-9.));
#1366=CARTESIAN_POINT('',(-13.5,-14.,-9.));
#1367=CARTESIAN_POINT('',(-11.5,-4.25,-9.));
#1368=CARTESIAN_POINT('Origin',(-12.5,-9.50000000000001,-6.5));
#1369=CARTESIAN_POINT('',(-11.5,-9.,-6.5));
#1370=CARTESIAN_POINT('',(-11.5,-9.50000000000001,-6.));
#1371=CARTESIAN_POINT('Origin',(-11.5,-9.50000000000001,-6.5));
#1372=CARTESIAN_POINT('',(-13.5,-9.50000000000001,-6.));
#1373=CARTESIAN_POINT('',(-12.5,-9.50000000000001,-6.));
#1374=CARTESIAN_POINT('',(-13.5,-9.,-6.5));
#1375=CARTESIAN_POINT('Origin',(-13.5,-9.50000000000001,-6.5));
#1376=CARTESIAN_POINT('',(-12.5,-9.,-6.5));
#1377=CARTESIAN_POINT('Origin',(-13.5,-10.5,-6.));
#1378=CARTESIAN_POINT('',(-11.5,-14.,-6.));
#1379=CARTESIAN_POINT('',(-11.5,-4.25,-6.));
#1380=CARTESIAN_POINT('',(-13.5,-14.,-6.));
#1381=CARTESIAN_POINT('',(-13.5,-14.,-6.));
#1382=CARTESIAN_POINT('',(-13.5,-10.5,-6.));
#1383=CARTESIAN_POINT('Origin',(-13.5,-14.,-11.5));
#1384=CARTESIAN_POINT('',(-11.5,-14.,-12.));
#1385=CARTESIAN_POINT('',(-11.5,-14.5,-11.5));
#1386=CARTESIAN_POINT('Origin',(-11.5,-14.,-11.5));
#1387=CARTESIAN_POINT('',(-13.5,-14.5,-11.5));
#1388=CARTESIAN_POINT('',(-13.5,-14.5,-11.5));
#1389=CARTESIAN_POINT('',(-13.5,-14.,-12.));
#1390=CARTESIAN_POINT('Origin',(-13.5,-14.,-11.5));
#1391=CARTESIAN_POINT('',(-13.5,-14.,-12.));
#1392=CARTESIAN_POINT('Origin',(-13.5,-10.5,-12.));
#1393=CARTESIAN_POINT('',(-13.5,-10.5,-12.));
#1394=CARTESIAN_POINT('',(-13.5,-10.5,-12.));
#1395=CARTESIAN_POINT('',(-11.5,-10.5,-12.));
#1396=CARTESIAN_POINT('',(-12.5,-10.5,-12.));
#1397=CARTESIAN_POINT('',(-11.5,-10.5,-12.));
#1398=CARTESIAN_POINT('Origin',(-13.5,2.,-5.7803097998705));
#1399=CARTESIAN_POINT('',(-13.5,-14.5,-9.5));
#1400=CARTESIAN_POINT('',(-13.5,-14.5,-12.));
#1401=CARTESIAN_POINT('Origin',(-13.5,-14.,-9.5));
#1402=CARTESIAN_POINT('',(-13.5,-9.,-2.17046469980577));
#1403=CARTESIAN_POINT('',(-13.5,-14.5,-5.5));
#1404=CARTESIAN_POINT('Origin',(-13.5,-14.,-5.5));
#1405=CARTESIAN_POINT('',(-13.5,-14.5,-3.5));
#1406=CARTESIAN_POINT('',(-13.5,-14.5,-6.));
#1407=CARTESIAN_POINT('',(-13.5,-14.,-3.));
#1408=CARTESIAN_POINT('Origin',(-13.5,-14.,-3.5));
#1409=CARTESIAN_POINT('',(-13.5,-10.5,-3.));
#1410=CARTESIAN_POINT('',(-13.5,-14.5,-3.));
#1411=CARTESIAN_POINT('',(-13.5,-10.5,-0.1));
#1412=CARTESIAN_POINT('',(-13.5,-10.5,-0.1));
#1413=CARTESIAN_POINT('',(-13.5,14.5,-0.1));
#1414=CARTESIAN_POINT('',(-13.5,2.,-0.100000000000002));
#1415=CARTESIAN_POINT('',(-13.5,14.5,-11.));
#1416=CARTESIAN_POINT('',(-13.5,14.5,2.978760800518));
#1417=CARTESIAN_POINT('',(-13.5,12.5,-13.));
#1418=CARTESIAN_POINT('Origin',(-13.5,12.5,-11.));
#1419=CARTESIAN_POINT('',(-13.5,-10.5,-13.));
#1420=CARTESIAN_POINT('',(-13.5,-10.5,-13.));
#1421=CARTESIAN_POINT('',(-13.5,-10.5,-0.1));
#1422=CARTESIAN_POINT('Origin',(-13.5,-14.,-9.5));
#1423=CARTESIAN_POINT('',(-11.5,-14.5,-9.5));
#1424=CARTESIAN_POINT('Origin',(-11.5,-14.,-9.5));
#1425=CARTESIAN_POINT('',(-13.5,-14.5,-9.5));
#1426=CARTESIAN_POINT('Origin',(-11.5,2.,-5.7803097998705));
#1427=CARTESIAN_POINT('',(-11.5,-10.5,-13.));
#1428=CARTESIAN_POINT('',(-11.5,-10.5,2.978760800518));
#1429=CARTESIAN_POINT('',(-11.5,12.5,-13.));
#1430=CARTESIAN_POINT('',(-11.5,-10.5,-13.));
#1431=CARTESIAN_POINT('',(-11.5,14.5,-11.));
#1432=CARTESIAN_POINT('Origin',(-11.5,12.5,-11.));
#1433=CARTESIAN_POINT('',(-11.5,14.5,-0.1));
#1434=CARTESIAN_POINT('',(-11.5,14.5,2.978760800518));
#1435=CARTESIAN_POINT('',(-11.5,-10.5,-0.1));
#1436=CARTESIAN_POINT('',(-11.5,2.,-0.100000000000002));
#1437=CARTESIAN_POINT('',(-11.5,-10.5,-3.));
#1438=CARTESIAN_POINT('',(-11.5,-10.5,2.978760800518));
#1439=CARTESIAN_POINT('',(-11.5,-14.,-3.));
#1440=CARTESIAN_POINT('',(-11.5,-14.5,-3.));
#1441=CARTESIAN_POINT('',(-11.5,-14.5,-3.5));
#1442=CARTESIAN_POINT('Origin',(-11.5,-14.,-3.5));
#1443=CARTESIAN_POINT('',(-11.5,-14.5,-5.5));
#1444=CARTESIAN_POINT('',(-11.5,-14.5,-6.));
#1445=CARTESIAN_POINT('Origin',(-11.5,-14.,-5.5));
#1446=CARTESIAN_POINT('',(-11.5,-9.,-2.17046469980577));
#1447=CARTESIAN_POINT('',(-11.5,-14.5,-12.));
#1448=CARTESIAN_POINT('Origin',(-13.5,-14.,-5.5));
#1449=CARTESIAN_POINT('',(-13.5,-14.5,-5.5));
#1450=CARTESIAN_POINT('Origin',(-13.5,-14.,-3.5));
#1451=CARTESIAN_POINT('',(-13.5,-14.,-3.));
#1452=CARTESIAN_POINT('',(-13.5,-14.5,-3.5));
#1453=CARTESIAN_POINT('Origin',(-13.5,-14.5,-3.));
#1454=CARTESIAN_POINT('',(-12.5,-10.5,-3.));
#1455=CARTESIAN_POINT('Origin',(-11.5,-9.,1.43938040025897));
#1456=CARTESIAN_POINT('Origin',(-13.5,-14.5,-6.));
#1457=CARTESIAN_POINT('Origin',(-13.5,-14.5,-12.));
#1458=CARTESIAN_POINT('Origin',(-11.5,-10.5,-13.));
#1459=CARTESIAN_POINT('',(-11.5,-10.5,-13.));
#1460=CARTESIAN_POINT('Origin',(-11.5,-10.5,-13.));
#1461=CARTESIAN_POINT('',(-11.94,-10.5,-0.0999999999999979));
#1462=CARTESIAN_POINT('Origin',(12.5,-9.5,-8.49999999999999));
#1463=CARTESIAN_POINT('',(13.5,-9.5,-9.));
#1464=CARTESIAN_POINT('',(13.5,-9.,-8.49999999999999));
#1465=CARTESIAN_POINT('Origin',(13.5,-9.5,-8.49999999999999));
#1466=CARTESIAN_POINT('',(11.5,-9.,-8.49999999999999));
#1467=CARTESIAN_POINT('',(12.5,-9.,-8.49999999999999));
#1468=CARTESIAN_POINT('',(11.5,-9.5,-9.));
#1469=CARTESIAN_POINT('Origin',(11.5,-9.5,-8.49999999999999));
#1470=CARTESIAN_POINT('',(12.5,-9.5,-9.));
#1471=CARTESIAN_POINT('Origin',(11.5,-9.,1.43938040025897));
#1472=CARTESIAN_POINT('',(13.5,-9.,-6.5));
#1473=CARTESIAN_POINT('',(13.5,-9.,-2.17046469980577));
#1474=CARTESIAN_POINT('',(11.5,-9.,-6.5));
#1475=CARTESIAN_POINT('',(12.5,-9.,-6.5));
#1476=CARTESIAN_POINT('',(11.5,-9.,-2.17046469980577));
#1477=CARTESIAN_POINT('Origin',(12.5,-9.5,-6.5));
#1478=CARTESIAN_POINT('',(11.5,-9.5,-6.));
#1479=CARTESIAN_POINT('Origin',(11.5,-9.5,-6.5));
#1480=CARTESIAN_POINT('',(13.5,-9.5,-6.));
#1481=CARTESIAN_POINT('Origin',(13.5,-9.5,-6.5));
#1482=CARTESIAN_POINT('',(12.5,-9.5,-6.));
#1483=CARTESIAN_POINT('Origin',(13.5,-14.,-11.5));
#1484=CARTESIAN_POINT('',(11.5,-14.5,-11.5));
#1485=CARTESIAN_POINT('',(11.5,-14.,-12.));
#1486=CARTESIAN_POINT('Origin',(11.5,-14.,-11.5));
#1487=CARTESIAN_POINT('',(13.5,-14.,-12.));
#1488=CARTESIAN_POINT('',(13.5,-14.,-12.));
#1489=CARTESIAN_POINT('',(13.5,-14.5,-11.5));
#1490=CARTESIAN_POINT('Origin',(13.5,-14.,-11.5));
#1491=CARTESIAN_POINT('',(13.5,-14.5,-11.5));
#1492=CARTESIAN_POINT('Origin',(13.5,-14.5,-12.));
#1493=CARTESIAN_POINT('',(13.5,-14.5,-9.5));
#1494=CARTESIAN_POINT('',(13.5,-14.5,-12.));
#1495=CARTESIAN_POINT('',(11.5,-14.5,-9.5));
#1496=CARTESIAN_POINT('',(13.5,-14.5,-9.5));
#1497=CARTESIAN_POINT('',(11.5,-14.5,-12.));
#1498=CARTESIAN_POINT('Origin',(13.5,2.,-5.78030979987052));
#1499=CARTESIAN_POINT('',(13.5,-10.5,-12.));
#1500=CARTESIAN_POINT('',(13.5,-10.5,-12.));
#1501=CARTESIAN_POINT('',(13.5,-10.5,-13.));
#1502=CARTESIAN_POINT('',(13.5,-10.5,2.97876080051797));
#1503=CARTESIAN_POINT('',(13.5,12.5,-13.));
#1504=CARTESIAN_POINT('',(13.5,14.5,-13.));
#1505=CARTESIAN_POINT('',(13.5,14.5,-11.));
#1506=CARTESIAN_POINT('Origin',(13.5,12.5,-11.));
#1507=CARTESIAN_POINT('',(13.5,14.5,-0.100000000000005));
#1508=CARTESIAN_POINT('',(13.5,14.5,-0.100000000000005));
#1509=CARTESIAN_POINT('',(13.5,-10.5,-0.100000000000005));
#1510=CARTESIAN_POINT('',(13.5,2.,-0.1));
#1511=CARTESIAN_POINT('',(13.5,-10.5,-3.));
#1512=CARTESIAN_POINT('',(13.5,-10.5,2.97876080051797));
#1513=CARTESIAN_POINT('',(13.5,-14.,-3.));
#1514=CARTESIAN_POINT('',(13.5,-14.5,-3.));
#1515=CARTESIAN_POINT('',(13.5,-14.5,-3.5));
#1516=CARTESIAN_POINT('Origin',(13.5,-14.,-3.5));
#1517=CARTESIAN_POINT('',(13.5,-14.5,-5.5));
#1518=CARTESIAN_POINT('',(13.5,-14.5,-6.));
#1519=CARTESIAN_POINT('',(13.5,-14.,-6.));
#1520=CARTESIAN_POINT('Origin',(13.5,-14.,-5.5));
#1521=CARTESIAN_POINT('',(13.5,-4.25,-6.));
#1522=CARTESIAN_POINT('',(13.5,-14.,-9.));
#1523=CARTESIAN_POINT('',(13.5,-14.5,-9.));
#1524=CARTESIAN_POINT('Origin',(13.5,-14.,-9.5));
#1525=CARTESIAN_POINT('Origin',(13.5,-14.,-9.5));
#1526=CARTESIAN_POINT('',(11.5,-14.,-9.));
#1527=CARTESIAN_POINT('Origin',(11.5,-14.,-9.5));
#1528=CARTESIAN_POINT('',(13.5,-14.,-9.));
#1529=CARTESIAN_POINT('Origin',(13.5,-14.5,-9.));
#1530=CARTESIAN_POINT('',(11.5,-4.25,-9.));
#1531=CARTESIAN_POINT('Origin',(13.5,-14.,-5.5));
#1532=CARTESIAN_POINT('',(11.5,-14.5,-5.5));
#1533=CARTESIAN_POINT('',(11.5,-14.,-6.));
#1534=CARTESIAN_POINT('Origin',(11.5,-14.,-5.49999999999999));
#1535=CARTESIAN_POINT('',(13.5,-14.,-6.));
#1536=CARTESIAN_POINT('',(13.5,-14.5,-5.5));
#1537=CARTESIAN_POINT('Origin',(13.5,-14.5,-6.));
#1538=CARTESIAN_POINT('',(11.5,-14.5,-3.5));
#1539=CARTESIAN_POINT('',(13.5,-14.5,-3.5));
#1540=CARTESIAN_POINT('',(11.5,-14.5,-6.));
#1541=CARTESIAN_POINT('Origin',(13.5,-14.,-3.5));
#1542=CARTESIAN_POINT('',(11.5,-14.,-3.));
#1543=CARTESIAN_POINT('Origin',(11.5,-14.,-3.5));
#1544=CARTESIAN_POINT('',(13.5,-14.,-3.));
#1545=CARTESIAN_POINT('Origin',(13.5,-14.5,-3.));
#1546=CARTESIAN_POINT('',(11.5,-10.5,-3.));
#1547=CARTESIAN_POINT('',(12.5,-10.5,-3.));
#1548=CARTESIAN_POINT('',(11.5,-14.5,-3.));
#1549=CARTESIAN_POINT('Origin',(13.5,-10.5,-6.));
#1550=CARTESIAN_POINT('',(11.5,-10.5,-6.));
#1551=CARTESIAN_POINT('Origin',(11.5,-10.5,1.43938040025897));
#1552=CARTESIAN_POINT('',(11.5,-10.5,-0.100000000000005));
#1553=CARTESIAN_POINT('',(11.94,-10.5,-0.100000000000002));
#1554=CARTESIAN_POINT('',(11.5,-10.5,2.97876080051797));
#1555=CARTESIAN_POINT('Origin',(13.5,-10.5,-12.));
#1556=CARTESIAN_POINT('',(11.5,-10.5,-12.));
#1557=CARTESIAN_POINT('',(11.5,-10.5,-12.));
#1558=CARTESIAN_POINT('',(12.5,-10.5,-12.));
#1559=CARTESIAN_POINT('Origin',(11.5,-10.5,1.43938040025897));
#1560=CARTESIAN_POINT('',(11.5,-10.5,-13.));
#1561=CARTESIAN_POINT('',(11.5,-10.5,2.97876080051797));
#1562=CARTESIAN_POINT('',(11.5,-10.5,-13.));
#1563=CARTESIAN_POINT('Origin',(-11.5,12.5,-11.));
#1564=CARTESIAN_POINT('',(-11.5,14.5,-11.));
#1565=CARTESIAN_POINT('',(-11.5,12.5,-13.));
#1566=CARTESIAN_POINT('Origin',(-11.5,14.5,1.439380400259));
#1567=CARTESIAN_POINT('',(-11.94,14.5,-0.1));
#1568=CARTESIAN_POINT('Origin',(11.5,12.5,-11.));
#1569=CARTESIAN_POINT('',(11.5,12.5,-13.));
#1570=CARTESIAN_POINT('',(11.5,12.5,-13.));
#1571=CARTESIAN_POINT('',(11.4999999999998,14.5,-11.));
#1572=CARTESIAN_POINT('Origin',(11.5,12.5,-11.));
#1573=CARTESIAN_POINT('',(11.5,14.5,-11.));
#1574=CARTESIAN_POINT('Origin',(11.5,14.5,-13.));
#1575=CARTESIAN_POINT('',(11.5,14.5,-0.100000000000002));
#1576=CARTESIAN_POINT('',(11.5,14.5,2.97876080051799));
#1577=CARTESIAN_POINT('',(11.94,14.5,-0.1));
#1578=CARTESIAN_POINT('Origin',(11.5,2.,-5.78030979987052));
#1579=CARTESIAN_POINT('',(11.5,2.,-0.1));
#1580=CARTESIAN_POINT('',(11.5,14.5,-13.));
#1581=CARTESIAN_POINT('Origin',(-11.4,1.99999999999999,-0.0999999999999998));
#1582=CARTESIAN_POINT('',(-11.4,-10.5,2.));
#1583=CARTESIAN_POINT('Origin',(-11.4,-10.5,-0.0999999999999998));
#1584=CARTESIAN_POINT('',(-11.4,14.5,2.));
#1585=CARTESIAN_POINT('',(-11.4,-4.25,2.));
#1586=CARTESIAN_POINT('Origin',(-11.4,14.5,-0.0999999999999998));
#1587=CARTESIAN_POINT('Origin',(-11.5,-10.5,-0.0999999999999998));
#1588=CARTESIAN_POINT('',(-11.4,-10.5,0.));
#1589=CARTESIAN_POINT('Origin',(-11.4,-10.5,-0.0999999999999998));
#1590=CARTESIAN_POINT('',(-11.4,-10.5,0.));
#1591=CARTESIAN_POINT('Origin',(-13.5,14.5,-0.0999999999999997));
#1592=CARTESIAN_POINT('',(-11.4,14.5,0.));
#1593=CARTESIAN_POINT('',(-11.4,14.5,0.));
#1594=CARTESIAN_POINT('Origin',(-11.4,14.5,-0.0999999999999998));
#1595=CARTESIAN_POINT('Origin',(-11.5,14.5,-13.));
#1596=CARTESIAN_POINT('Origin',(-11.4,1.99999999999999,-0.0999999999999998));
#1597=CARTESIAN_POINT('',(-11.4,-4.25,0.));
#1598=CARTESIAN_POINT('Origin',(11.4,2.,-0.100000000000002));
#1599=CARTESIAN_POINT('',(11.4,14.5,2.));
#1600=CARTESIAN_POINT('Origin',(11.4,14.5,-0.100000000000002));
#1601=CARTESIAN_POINT('',(11.4,-10.5,2.));
#1602=CARTESIAN_POINT('',(11.4,8.25,2.));
#1603=CARTESIAN_POINT('Origin',(11.4,-10.5,-0.100000000000002));
#1604=CARTESIAN_POINT('Origin',(11.5,14.5,-0.100000000000002));
#1605=CARTESIAN_POINT('',(11.4,14.5,0.));
#1606=CARTESIAN_POINT('Origin',(11.4,14.5,-0.100000000000002));
#1607=CARTESIAN_POINT('',(11.4,14.5,0.));
#1608=CARTESIAN_POINT('Origin',(13.5,-10.5,-0.100000000000006));
#1609=CARTESIAN_POINT('',(11.4,-10.5,0.));
#1610=CARTESIAN_POINT('',(11.4,-10.5,0.));
#1611=CARTESIAN_POINT('Origin',(11.4,-10.5,-0.100000000000002));
#1612=CARTESIAN_POINT('Origin',(11.5,-10.5,-13.));
#1613=CARTESIAN_POINT('Origin',(11.4,2.,-0.100000000000002));
#1614=CARTESIAN_POINT('',(11.4,8.25,0.));
#1615=CARTESIAN_POINT('Origin',(13.5,14.5,0.));
#1616=CARTESIAN_POINT('',(-13.5,14.5,2.));
#1617=CARTESIAN_POINT('',(-13.5,14.5,0.));
#1618=CARTESIAN_POINT('Origin',(0.,2.,2.));
#1619=CARTESIAN_POINT('',(13.5,-10.5,2.));
#1620=CARTESIAN_POINT('',(-4.,3.5,2.));
#1621=CARTESIAN_POINT('Origin',(0.,3.5,2.));
#1622=CARTESIAN_POINT('Origin',(-13.5,-10.5,0.));
#1623=CARTESIAN_POINT('',(13.5,-10.5,0.));
#1624=CARTESIAN_POINT('Origin',(0.,3.5,0.));
#1625=CARTESIAN_POINT('',(-4.,3.5,0.));
#1626=CARTESIAN_POINT('',(-4.,3.5,0.));
#1627=CARTESIAN_POINT('Origin',(0.,3.5,0.));
#1628=CARTESIAN_POINT('Origin',(0.,2.,0.));
#1629=UNCERTAINTY_MEASURE_WITH_UNIT(LENGTH_MEASURE(0.01),#1633,
'DISTANCE_ACCURACY_VALUE',
'Maximum model space distance between geometric entities at asserted c
onnectivities');
#1630=UNCERTAINTY_MEASURE_WITH_UNIT(LENGTH_MEASURE(0.01),#1633,
'DISTANCE_ACCURACY_VALUE',
'Maximum model space distance between geometric entities at asserted c
onnectivities');
#1631=(
GEOMETRIC_REPRESENTATION_CONTEXT(3)
GLOBAL_UNCERTAINTY_ASSIGNED_CONTEXT((#1629))
GLOBAL_UNIT_ASSIGNED_CONTEXT((#1633,#1635,#1636))
REPRESENTATION_CONTEXT('','3D')
);
#1632=(
GEOMETRIC_REPRESENTATION_CONTEXT(3)
GLOBAL_UNCERTAINTY_ASSIGNED_CONTEXT((#1630))
GLOBAL_UNIT_ASSIGNED_CONTEXT((#1633,#1635,#1636))
REPRESENTATION_CONTEXT('','3D')
);
#1633=(
LENGTH_UNIT()
NAMED_UNIT(*)
SI_UNIT(.MILLI.,.METRE.)
);
#1634=(
LENGTH_UNIT()
NAMED_UNIT(*)
SI_UNIT($,.METRE.)
);
#1635=(
NAMED_UNIT(*)
PLANE_ANGLE_UNIT()
SI_UNIT($,.RADIAN.)
);
#1636=(
NAMED_UNIT(*)
SI_UNIT($,.STERADIAN.)
SOLID_ANGLE_UNIT()
);
#1637=SHAPE_DEFINITION_REPRESENTATION(#1638,#1639);
#1638=PRODUCT_DEFINITION_SHAPE('',$,#1641);
#1639=SHAPE_REPRESENTATION('',(#977),#1631);
#1640=PRODUCT_DEFINITION_CONTEXT('part definition',#1645,'design');
#1641=PRODUCT_DEFINITION('EL-Connect-003-OT-201-M8',
'EL-Connect-003-OT-201-M8 v2',#1642,#1640);
#1642=PRODUCT_DEFINITION_FORMATION('',$,#1647);
#1643=PRODUCT_RELATED_PRODUCT_CATEGORY('EL-Connect-003-OT-201-M8 v2',
'EL-Connect-003-OT-201-M8 v2',(#1647));
#1644=APPLICATION_PROTOCOL_DEFINITION('international standard',
'automotive_design',2009,#1645);
#1645=APPLICATION_CONTEXT(
'Core Data for Automotive Mechanical Design Process');
#1646=PRODUCT_CONTEXT('part definition',#1645,'mechanical');
#1647=PRODUCT('EL-Connect-003-OT-201-M8','EL-Connect-003-OT-201-M8 v2',
$,(#1646));
#1648=PRESENTATION_STYLE_ASSIGNMENT((#1649));
#1649=SURFACE_STYLE_USAGE(.BOTH.,#1650);
#1650=SURFACE_SIDE_STYLE('',(#1651));
#1651=SURFACE_STYLE_FILL_AREA(#1652);
#1652=FILL_AREA_STYLE('\X2\94A2\X0\ - \X2\7F0E5149\X0\',(#1653));
#1653=FILL_AREA_STYLE_COLOUR('\X2\94A2\X0\ - \X2\7F0E5149\X0\',#1654);
#1654=COLOUR_RGB('\X2\94A2\X0\ - \X2\7F0E5149\X0\',0.627450980392157,0.627450980392157,
0.627450980392157);
ENDSEC;
END-ISO-10303-21;
